<?xml version="1.0" encoding="UTF-8"?>
<svg version="1.1" xmlns="http://www.w3.org/2000/svg" width="900" height="837">
<path d="M0 0 C1.59963559 -0.00299821 3.19927047 -0.00640225 4.79890442 -0.01017761 C9.11537643 -0.01895576 13.43182858 -0.02135314 17.74830866 -0.0219934 C20.45428704 -0.02270758 23.16026049 -0.02484884 25.86623764 -0.02749062 C35.33286607 -0.03672453 44.79948049 -0.04082807 54.26611328 -0.04003906 C63.04731784 -0.03943924 71.82846079 -0.04997746 80.60964978 -0.06578273 C88.18375054 -0.07892252 95.75783134 -0.08422025 103.33194339 -0.08358365 C107.83998148 -0.0833305 112.34796477 -0.08607968 116.85599136 -0.0967617 C121.10291826 -0.1065515 125.34973918 -0.10644862 129.59667015 -0.09924507 C131.14082052 -0.0982125 132.68497787 -0.10048137 134.22911644 -0.10660553 C153.66801754 -0.17860618 172.02724408 1.94576992 189.87451172 10.14526367 C191.56253906 10.91870117 191.56253906 10.91870117 193.28466797 11.70776367 C206.01172856 17.79645711 217.00364037 24.9851352 225.87451172 36.14526367 C226.49326172 36.76401367 227.11201172 37.38276367 227.74951172 38.02026367 C232.33252707 42.60327902 236.38920426 47.07006767 238.87451172 53.14526367 C238.87451172 54.13526367 238.87451172 55.12526367 238.87451172 56.14526367 C239.53451172 56.14526367 240.19451172 56.14526367 240.87451172 56.14526367 C242.1311615 59.05126628 242.87451172 60.94130952 242.87451172 64.14526367 C244.13265104 64.1411156 244.13265104 64.1411156 245.41620731 64.13688374 C265.83100299 64.07061255 286.24578011 64.02097754 306.66066074 63.98982716 C316.53317187 63.97436242 326.40561116 63.95328039 336.27807617 63.91894531 C344.88354714 63.88903095 353.48896609 63.8696858 362.09448761 63.86299819 C366.65048058 63.85908939 371.20632473 63.84991132 375.76226997 63.8280735 C380.05254237 63.80767619 384.34260494 63.80143643 388.63292122 63.80594063 C390.20546103 63.80511688 391.77800802 63.79917052 393.35050583 63.78764725 C395.50281113 63.77265185 397.65433122 63.77633506 399.80665588 63.78450012 C401.61106565 63.78035205 401.61106565 63.78035205 403.45192814 63.77612019 C409.3125228 64.40821588 414.0776455 66.47219756 417.87451172 71.14526367 C419.62157314 76.38644792 419.20242888 81.83359503 417.87451172 87.14526367 C417.21451172 87.14526367 416.55451172 87.14526367 415.87451172 87.14526367 C415.87451172 88.79526367 415.87451172 90.44526367 415.87451172 92.14526367 C416.56416016 92.17104492 417.25380859 92.19682617 417.96435547 92.22338867 C425.96705499 92.70640483 432.32758914 94.17574709 438.56201172 99.39526367 C439.32513672 100.30276367 440.08826172 101.21026367 440.87451172 102.14526367 C441.37708496 102.65621582 441.8796582 103.16716797 442.39746094 103.69360352 C447.88163923 109.84293789 447.62433622 115.57578401 447.31201172 123.52026367 C447.28397461 125.30110352 447.28397461 125.30110352 447.25537109 127.11791992 C447.07333054 135.74762602 447.07333054 135.74762602 445.87451172 138.14526367 C445.21451172 138.14526367 444.55451172 138.14526367 443.87451172 138.14526367 C443.60638672 138.90838867 443.33826172 139.67151367 443.06201172 140.45776367 C441.92316666 143.03514985 441.06034501 144.41481231 438.87451172 146.14526367 C438.21451172 146.14526367 437.55451172 146.14526367 436.87451172 146.14526367 C436.54451172 147.13526367 436.21451172 148.12526367 435.87451172 149.14526367 C435.21451172 149.14526367 434.55451172 149.14526367 433.87451172 149.14526367 C434.035 150.1275293 434.035 150.1275293 434.19873047 151.12963867 C435.42675771 160.47849124 434.48326047 169.04869676 428.81201172 176.83276367 C427.18136618 178.83683949 426.18869926 179.9881699 423.87451172 181.14526367 C423.54451172 182.13526367 423.21451172 183.12526367 422.87451172 184.14526367 C423.53451172 184.14526367 424.19451172 184.14526367 424.87451172 184.14526367 C426.30497482 195.08280465 425.377193 202.90245883 418.87451172 212.14526367 C417.30056641 213.25321289 417.30056641 213.25321289 415.69482422 214.38354492 C412.66846916 217.34702557 412.47453152 217.65175584 412.31591797 221.58666992 C412.33874937 223.29402569 412.37991986 225.00120998 412.43701172 226.70776367 C412.34514104 235.69889525 411.06478117 242.20635153 404.87451172 249.14526367 C397.25485613 255.93565075 390.02137547 258.36259464 379.99951172 258.77026367 C379.21576172 258.80893555 378.43201172 258.84760742 377.62451172 258.88745117 C375.70819805 258.98092989 373.79138853 259.06414862 371.87451172 259.14526367 C371.62056641 260.34022461 371.36662109 261.53518555 371.10498047 262.76635742 C370.39770515 266.04890232 369.68252209 269.32947523 368.94873047 272.60620117 C368.77946045 273.36465332 368.61019043 274.12310547 368.43579102 274.90454102 C367.68749521 277.89186545 366.71567359 280.77376314 365.65966797 283.66479492 C364.26375602 288.07476551 363.31846706 292.60591471 362.31982422 297.12011719 C362.16126953 297.82450928 362.00271484 298.52890137 361.83935547 299.25463867 C361.63234009 300.19774902 361.63234009 300.19774902 361.42114258 301.15991211 C360.87451172 303.14526367 360.87451172 303.14526367 359.88378906 305.58349609 C358.9029061 308.07319251 358.29552295 310.40626553 357.76123047 313.02416992 C352.68083488 337.12266713 352.68083488 337.12266713 348.87451172 342.14526367 C341.7895349 346.73800757 335.58649521 346.69383977 327.29833984 346.59936523 C325.93757155 346.59823525 324.57680082 346.59887356 323.21603394 346.60113525 C319.54285431 346.60227748 315.87020291 346.57884891 312.19714546 346.55083942 C308.35081829 346.52574302 304.50447747 346.52347731 300.65808105 346.51873779 C293.38379169 346.5063321 286.10974433 346.47354338 278.83556128 346.43333983 C270.55019885 346.38854689 262.26482454 346.36661623 253.97937107 346.34655809 C236.94427825 346.30480837 219.90942062 346.23450352 202.87451172 346.14526367 C202.84873047 347.3028418 202.82294922 348.46041992 202.79638672 349.65307617 C202.74007823 351.19217496 202.68273152 352.731236 202.62451172 354.27026367 C202.61033203 355.03081055 202.59615234 355.79135742 202.58154297 356.57495117 C202.35463269 361.83926975 201.35186784 364.9698981 197.87451172 369.14526367 C193.9752916 371.74474375 190.71142704 371.42619967 186.18861389 371.40596008 C185.29049136 371.40978563 184.39236883 371.41361118 183.46703047 371.41755265 C180.445328 371.42790497 177.42381477 371.42388627 174.40209961 371.41992188 C172.24068525 371.42426711 170.07927244 371.42944962 167.91786194 371.43540955 C162.03777597 371.44883094 156.15775415 371.44937474 150.27765584 371.44684625 C145.37432441 371.44577868 140.47100607 371.45065438 135.56767744 371.45545167 C124.00303482 371.46655767 112.43842467 371.46697808 100.8737793 371.4609375 C88.93076755 371.45489535 76.98787354 371.4672124 65.04488188 371.48850757 C54.80194853 371.50610199 44.55905274 371.51212835 34.31610483 371.50886983 C28.19365041 371.50705341 22.07127997 371.5097288 15.94883919 371.52358437 C10.19262375 371.53612302 4.43659235 371.53425623 -1.31962013 371.52117348 C-3.43523088 371.5187995 -5.55085441 371.52157157 -7.6664505 371.5297966 C-10.54871872 371.54019639 -13.43036163 371.53221798 -16.31260681 371.51948547 C-17.15491771 371.52685976 -17.99722861 371.53423404 -18.86506408 371.54183179 C-22.23924096 371.51035299 -24.68615509 371.38611259 -27.67629337 369.74687481 C-29.12548828 368.14526367 -29.12548828 368.14526367 -29.12548828 366.14526367 C-29.78548828 366.14526367 -30.44548828 366.14526367 -31.12548828 366.14526367 C-33.58190988 360.42005159 -33.39424535 355.01945676 -33.35253906 348.9074707 C-33.35283112 347.78493393 -33.35312317 346.66239716 -33.35342407 345.50584412 C-33.35203356 341.80484215 -33.33648515 338.10404286 -33.32080078 334.40307617 C-33.31706967 331.83332428 -33.31422316 329.26357096 -33.31222534 326.69381714 C-33.30537588 320.62722353 -33.28962165 314.56071325 -33.26952636 308.494151 C-33.2471384 301.58484278 -33.23616666 294.67553102 -33.22613549 287.76619554 C-33.20525453 273.55917941 -33.17009668 259.35222412 -33.12548828 245.14526367 C-33.81351028 244.80490082 -34.50153229 244.46453796 -35.21040344 244.11386108 C-36.11219833 243.66580109 -37.01399323 243.21774109 -37.94311523 242.75610352 C-38.83738724 242.31261566 -39.73165924 241.86912781 -40.6530304 241.41220093 C-53.86762789 234.64077482 -63.86794126 224.05877588 -69.29736328 210.14135742 C-70.89911724 204.70899377 -71.44500596 199.79007602 -71.12548828 194.14526367 C-71.78548828 194.14526367 -72.44548828 194.14526367 -73.12548828 194.14526367 C-73.14881637 175.90880369 -73.16646701 157.67234756 -73.17730045 139.43587589 C-73.1824636 130.96896428 -73.18950666 122.50206192 -73.20092773 114.03515625 C-73.210874 106.65809274 -73.21734157 99.28103592 -73.21957678 91.90396589 C-73.22088398 87.99544314 -73.22397045 84.08693956 -73.23121834 80.17842293 C-73.23797765 76.50379925 -73.24010543 72.82920274 -73.23859596 69.15457344 C-73.23900466 67.15446757 -73.24440032 65.15436469 -73.24990845 63.15426636 C-73.24853378 61.97491013 -73.24715912 60.79555389 -73.2457428 59.58045959 C-73.24666459 58.54897325 -73.24758638 57.5174869 -73.24853611 56.45474339 C-73.12548828 54.14526367 -73.12548828 54.14526367 -72.12548828 53.14526367 C-71.82468988 51.33749508 -71.56049662 49.52359587 -71.31298828 47.70776367 C-69.04158957 33.71462124 -61.64420242 20.97010594 -50.50048828 12.08276367 C-34.64822531 0.73363874 -18.79162537 -0.00708631 0 0 Z M-40.12548828 39.14526367 C-41.86692081 41.72410638 -43.12665021 44.20303413 -44.12548828 47.14526367 C-44.63471832 48.5311821 -44.63471832 48.5311821 -45.15423584 49.94509888 C-46.76128056 55.65892468 -46.40332479 61.57885917 -46.38427734 67.46508789 C-46.38699081 68.81110828 -46.39055373 70.15712719 -46.39489746 71.50314331 C-46.40398323 75.14375017 -46.40049254 78.78424315 -46.39413929 82.42485189 C-46.38905742 86.24565012 -46.393777 90.06643892 -46.39691162 93.88723755 C-46.40054579 100.30448141 -46.39576753 106.72167917 -46.38623047 113.13891602 C-46.37535625 120.54101382 -46.37886619 127.94300135 -46.38988328 135.34509647 C-46.39898293 141.71561111 -46.40022809 148.0860927 -46.39500594 154.45661175 C-46.39189974 158.25463041 -46.39143939 162.05259738 -46.39807892 165.85061264 C-46.40389049 169.42444345 -46.39978636 172.9981333 -46.38829041 176.57194901 C-46.38441849 178.49649109 -46.39029752 180.42104521 -46.39654541 182.34558105 C-46.36461037 188.93349537 -45.84122211 194.77754839 -44.12548828 201.14526367 C-43.46548828 201.14526367 -42.80548828 201.14526367 -42.12548828 201.14526367 C-42.04298828 201.84651367 -41.96048828 202.54776367 -41.87548828 203.27026367 C-39.9310779 210.72383681 -35.4275636 213.61618644 -29.17236328 217.62963867 C-23.01587046 220.69209921 -16.97752269 221.44296222 -10.17810059 221.38577271 C-9.04078704 221.38833598 -9.04078704 221.38833598 -7.88049746 221.39095104 C-5.36245279 221.39422194 -2.84467991 221.38328222 -0.32666016 221.37231445 C1.48730462 221.37174982 3.30126986 221.37206792 5.11523438 221.37319946 C10.02373535 221.37377194 14.93213804 221.36203463 19.84061623 221.34805155 C24.97621789 221.33552668 30.11182194 221.3343723 35.24743652 221.33200073 C44.96533319 221.32579113 54.68318472 221.30938733 64.40106153 221.28930175 C75.46753562 221.26692659 86.53401189 221.25594525 97.60050297 221.24591088 C120.35853088 221.22502066 143.11651877 221.18985477 165.87451172 221.14526367 C166.21402791 219.58409548 166.54583716 218.02125029 166.87451172 216.45776367 C167.06013672 215.58764648 167.24576172 214.7175293 167.43701172 213.82104492 C167.86423219 211.20813403 167.95067373 208.78713329 167.87451172 206.14526367 C168.53451172 206.14526367 169.19451172 206.14526367 169.87451172 206.14526367 C171.85451172 197.89526367 173.83451172 189.64526367 175.87451172 181.14526367 C173.74553436 181.14161804 171.61655701 181.13797241 169.42306519 181.13421631 C149.38145022 181.09800412 129.33998528 181.03982515 109.29849052 180.96136093 C98.99440117 180.9215488 88.69038844 180.88916735 78.38623047 180.87426758 C69.4052919 180.86126234 60.42452175 180.83432652 51.44367802 180.79065061 C46.68820055 180.76801043 41.93293101 180.75235452 37.17739487 180.75337982 C32.70067176 180.75412492 28.22440873 180.73623454 23.74780464 180.70409584 C22.10553777 180.69558213 20.46321939 180.6938569 18.82094002 180.69946098 C16.57604291 180.70610062 14.33260982 180.68818376 12.08786011 180.66424561 C10.83237806 180.66055843 9.57689602 180.65687126 8.28336906 180.65307236 C4.22824478 180.04899095 2.05304751 178.68874965 -1.12548828 176.14526367 C-3.60819078 172.04357477 -3.41556003 167.70579716 -3.40014648 163.0378418 C-3.40525742 162.23559677 -3.41036835 161.43335175 -3.41563416 160.60679626 C-3.42949855 157.9632922 -3.42857601 155.32004971 -3.42626953 152.67651367 C-3.43015771 150.8347565 -3.43449263 148.99300023 -3.43925476 147.15124512 C-3.44670982 143.29456675 -3.44643051 139.43797995 -3.44116211 135.58129883 C-3.43536318 130.64152987 -3.45231212 125.70213533 -3.47550678 120.76242828 C-3.49024346 116.96028455 -3.491116 113.15823107 -3.48799706 109.35606384 C-3.48851013 107.53481809 -3.49374524 105.71356726 -3.50380898 103.89234924 C-3.51615718 101.34554736 -3.50939206 98.7994759 -3.49780273 96.25268555 C-3.50926834 95.12726601 -3.50926834 95.12726601 -3.52096558 93.97911072 C-3.47608844 89.51320696 -2.86565154 86.6985511 -0.12548828 83.14526367 C3.12724534 80.4100104 5.13889238 79.23721609 9.37451172 78.70776367 C13.25189989 79.19243719 15.61426548 79.99646501 18.87451172 82.14526367 C21.84921884 86.10165146 22.2614758 89.05999189 22.30688477 93.95507812 C22.31715856 94.62970942 22.32743235 95.30434072 22.33801746 95.9994154 C22.36775328 98.16921802 22.37742296 100.33856725 22.38623047 102.50854492 C22.40170642 103.85373502 22.41850506 105.19891058 22.43664551 106.54406738 C22.49444702 111.51513908 22.52669766 116.48648137 22.56201172 121.45776367 C22.66513672 132.57463867 22.76826172 143.69151367 22.87451172 155.14526367 C64.12451172 155.14526367 105.37451172 155.14526367 147.87451172 155.14526367 C148.12414496 132.6175404 148.12414496 132.6175404 148.35253906 110.08959961 C148.40698242 105.7277832 148.40698242 105.7277832 148.43496704 103.68438721 C148.45262632 102.26043622 148.46644296 100.83643438 148.47720337 99.41241455 C148.49427621 97.2525084 148.52362498 95.09307876 148.55566406 92.93334961 C148.56898773 91.71645447 148.5823114 90.49955933 148.59603882 89.24578857 C148.86420758 86.25999021 149.18043621 84.58776512 150.87451172 82.14526367 C155.65150933 79.318061 159.29674103 78.65337056 164.78857422 79.49682617 C168.11144351 80.52977805 169.80585014 82.43014535 171.87451172 85.14526367 C172.99329599 88.50161649 173.0333676 91.09814721 173.07983398 94.63623047 C173.08973358 95.29015778 173.09963318 95.94408508 173.10983276 96.61782837 C173.14138955 98.77667638 173.16618204 100.93554638 173.19091797 103.09448242 C173.21149253 104.59235706 173.23248914 106.09022595 173.25389099 107.58808899 C173.30905981 111.52864937 173.35849193 115.4692617 173.40673828 119.40991211 C173.45699123 123.43176898 173.51265749 127.45355051 173.56787109 131.4753418 C173.67538918 139.36525203 173.7768482 147.25522534 173.87451172 155.14526367 C176.51451172 155.14526367 179.15451172 155.14526367 181.87451172 155.14526367 C184.64192703 150.21307937 185.91470106 145.49342659 187.06201172 140.02026367 C187.23925781 139.22233398 187.41650391 138.4244043 187.59912109 137.60229492 C188.38651016 133.96024049 188.87451172 130.90989823 188.87451172 127.14526367 C189.53451172 127.14526367 190.19451172 127.14526367 190.87451172 127.14526367 C191.04055908 126.40477783 191.20660645 125.66429199 191.37768555 124.90136719 C192.14270962 121.50241006 192.91480765 118.10509647 193.68701172 114.70776367 C193.94804688 113.5430957 194.20908203 112.37842773 194.47802734 111.1784668 C195.79327095 105.41412754 197.2404923 99.82562385 199.19799805 94.24804688 C200.62387107 89.81605686 201.39181501 85.20195325 202.24755859 80.6315918 C203.25837318 75.69594065 204.6380437 72.14970715 207.87451172 68.14526367 C211.12451172 66.27026367 211.12451172 66.27026367 213.87451172 65.14526367 C213.21451172 63.49526367 212.55451172 61.84526367 211.87451172 60.14526367 C211.21451172 60.14526367 210.55451172 60.14526367 209.87451172 60.14526367 C209.47232422 59.2712793 209.47232422 59.2712793 209.06201172 58.37963867 C207.85970181 56.11739767 206.53625259 54.33950049 204.87451172 52.39526367 C204.35888672 51.78166992 203.84326172 51.16807617 203.31201172 50.53588867 C201.9682792 48.91349991 201.9682792 48.91349991 199.87451172 49.14526367 C199.64763672 48.54713867 199.42076172 47.94901367 199.18701172 47.33276367 C197.5184213 44.55177964 195.74612852 43.58107207 192.87451172 42.14526367 C192.21451172 42.14526367 191.55451172 42.14526367 190.87451172 42.14526367 C190.87451172 41.48526367 190.87451172 40.82526367 190.87451172 40.14526367 C180.42620624 34.85559132 170.54217866 30.01045664 158.87451172 28.14526367 C158.08719854 27.987013 157.29988537 27.82876232 156.48871422 27.66571617 C147.90550247 26.03334175 139.47277721 25.84809418 130.77148438 25.85473633 C129.18653552 25.84873824 127.60158956 25.84192979 126.01664734 25.8343811 C121.74587707 25.81684766 117.47518712 25.81203122 113.20438433 25.81074953 C110.5280669 25.80932056 107.85176943 25.80503704 105.175457 25.7997551 C95.8160143 25.7812992 86.45662826 25.77307921 77.09716797 25.7746582 C68.4083949 25.77585954 59.71987024 25.75474733 51.03116 25.72317088 C43.53945437 25.69692632 36.0478295 25.68629427 28.55607831 25.68756902 C24.09559127 25.6880761 19.63532554 25.68253432 15.1748848 25.66121292 C10.97709677 25.64169089 6.77973813 25.6418002 2.58193398 25.65624619 C1.05264335 25.65831795 -0.47667519 25.65373233 -2.0059185 25.64152527 C-16.86241305 25.53073174 -30.04079569 27.16227601 -40.12548828 39.14526367 Z M226.87451172 91.14526367 C223.46450622 102.213857 223.46450622 102.213857 220.81201172 113.39526367 C219.70100652 118.6199175 218.48431162 123.63588661 216.66748047 128.66479492 C215.48529388 132.36276774 214.58928407 136.12057234 213.68701172 139.89526367 C213.50783203 140.62946533 213.32865234 141.36366699 213.14404297 142.12011719 C212.26825752 145.85888289 211.6550741 149.30132193 211.87451172 153.14526367 C211.21451172 153.14526367 210.55451172 153.14526367 209.87451172 153.14526367 C209.62544067 154.25599243 209.62544067 154.25599243 209.37133789 155.38916016 C208.60631381 158.78811728 207.83421579 162.18543088 207.06201172 165.58276367 C206.80097656 166.74743164 206.53994141 167.91209961 206.27099609 169.11206055 C204.95527994 174.87847085 203.5113966 180.47494397 201.55541992 186.05566406 C200.37232664 189.68639026 199.64369695 193.40916365 198.87451172 197.14526367 C197.7391055 202.46343302 196.51142882 207.57970528 194.65185547 212.69604492 C193.53590129 216.21214176 192.75310298 219.80061337 191.93701172 223.39526367 C190.48392883 229.79008708 188.74288803 236.01651938 186.75732422 242.27026367 C185.05500139 247.81411147 183.49738764 253.29984042 183.87451172 259.14526367 C183.21451172 259.14526367 182.55451172 259.14526367 181.87451172 259.14526367 C181.70846436 259.91604248 181.54241699 260.68682129 181.37133789 261.48095703 C180.6067182 265.01603019 179.83442462 268.5493855 179.06201172 272.08276367 C178.80097656 273.29512695 178.53994141 274.50749023 178.27099609 275.7565918 C176.97475311 281.66169874 175.57074774 287.39399166 173.55981445 293.09570312 C172.39055814 296.59264176 171.61222944 300.17422356 170.81201172 303.77026367 C170.48946951 305.20033034 170.16526782 306.6300238 169.83935547 308.05932617 C169.70134521 308.67759277 169.56333496 309.29585937 169.42114258 309.93286133 C168.65694681 313.02582339 167.74976519 316.08187651 166.87451172 319.14526367 C220.00451172 319.14526367 273.13451172 319.14526367 327.87451172 319.14526367 C331.02930756 309.68087616 333.94151357 300.31685262 336.12451172 290.58276367 C336.29966309 289.80900391 336.47481445 289.03524414 336.65527344 288.23803711 C337.41250604 284.7683409 337.87451172 281.71370428 337.87451172 278.14526367 C338.53451172 278.14526367 339.19451172 278.14526367 339.87451172 278.14526367 C341.19451172 271.54526367 342.51451172 264.94526367 343.87451172 258.14526367 C340.91227214 257.65698242 337.95003255 257.16870117 334.98779297 256.68041992 C332.27201568 256.21359246 329.57326937 255.70103751 326.87451172 255.14526367 C326.87451172 254.48526367 326.87451172 253.82526367 326.87451172 253.14526367 C325.37646848 251.92977319 325.37646848 251.92977319 323.49951172 250.77026367 C320.69469918 248.86072463 318.98260505 247.46954367 317.87451172 244.14526367 C317.21451172 244.14526367 316.55451172 244.14526367 315.87451172 244.14526367 C312.78959797 233.12771456 311.32731787 224.0458538 315.87451172 213.14526367 C318.36585404 209.56432719 321.23179389 206.46968206 324.62841797 203.73120117 C326.11544296 202.18729452 326.11544296 202.18729452 325.80810547 199.90307617 C325.64439453 199.03424805 325.48068359 198.16541992 325.31201172 197.27026367 C324.42465721 190.25549278 326.55830542 184.68989309 328.87451172 178.14526367 C329.04337891 177.38342773 329.21224609 176.6215918 329.38623047 175.83666992 C329.87451172 174.14526367 329.87451172 174.14526367 331.81201172 173.02026367 C332.49263672 172.73151367 333.17326172 172.44276367 333.87451172 172.14526367 C334.53451172 171.48526367 335.19451172 170.82526367 335.87451172 170.14526367 C335.80312881 167.62604168 335.63058458 165.20856033 335.37451172 162.70776367 C334.81749137 156.03780207 334.66105315 149.57853214 336.87451172 143.14526367 C337.53451172 142.81526367 338.19451172 142.48526367 338.87451172 142.14526367 C339.67888672 141.17588867 340.48326172 140.20651367 341.31201172 139.20776367 C343.87451172 136.14526367 343.87451172 136.14526367 346.87451172 134.14526367 C346.87451172 133.48526367 346.87451172 132.82526367 346.87451172 132.14526367 C347.86451172 131.81526367 348.85451172 131.48526367 349.87451172 131.14526367 C349.85130859 130.16686523 349.82810547 129.1884668 349.80419922 128.18041992 C349.70358941 120.87183615 349.88495256 114.23306816 351.87451172 107.14526367 C352.53451172 107.14526367 353.19451172 107.14526367 353.87451172 107.14526367 C354.43138672 106.09338867 354.43138672 106.09338867 354.99951172 105.02026367 C358.77596539 99.22970137 364.26777003 95.92310603 370.87451172 94.14526367 C373.98958186 93.65411264 377.11138808 93.32556757 380.24951172 93.02026367 C381.08095703 92.93389648 381.91240234 92.8475293 382.76904297 92.75854492 C384.80358319 92.54807524 386.83897142 92.34583054 388.87451172 92.14526367 C388.87451172 91.81526367 388.87451172 91.48526367 388.87451172 91.14526367 C335.41451172 91.14526367 281.95451172 91.14526367 226.87451172 91.14526367 Z M375.87451172 120.14526367 C376.20451172 122.45526367 376.53451172 124.76526367 376.87451172 127.14526367 C391.39451172 127.14526367 405.91451172 127.14526367 420.87451172 127.14526367 C421.20451172 125.16526367 421.53451172 123.18526367 421.87451172 121.14526367 C419.35185264 118.57329904 417.37687726 117.92066685 413.88793945 117.77294922 C412.27804454 117.75994016 410.66795216 117.76396796 409.05810547 117.78198242 C407.77879906 117.78123466 407.77879906 117.78123466 406.47364807 117.7804718 C404.67405869 117.78280857 402.8744658 117.79251369 401.07495117 117.80908203 C398.31838836 117.83270902 395.56279093 117.82963581 392.80615234 117.82299805 C391.05679761 117.82857393 389.30744696 117.83568324 387.55810547 117.84448242 C386.73306015 117.84357101 385.90801483 117.84265961 385.05796814 117.84172058 C381.15797179 117.89014597 379.19167803 117.93381947 375.87451172 120.14526367 Z M394.51513672 152.97338867 C393.15856964 153.01517242 393.15856964 153.01517242 391.77459717 153.05780029 C388.89019842 153.15106246 386.00780319 153.27278502 383.12451172 153.39526367 C381.16754512 153.46354876 379.2105128 153.5299772 377.25341797 153.59448242 C372.45942086 153.75655318 367.6670234 153.94415273 362.87451172 154.14526367 C361.67612963 156.47380831 361.67612963 156.47380831 360.87451172 159.14526367 C361.86451172 160.63026367 361.86451172 160.63026367 362.87451172 162.14526367 C364.80623343 162.58136526 364.80623343 162.58136526 367.04882812 162.48583984 C367.9095694 162.48561325 368.77031067 162.48538666 369.65713501 162.4851532 C371.05250992 162.46192741 371.05250992 162.46192741 372.47607422 162.43823242 C373.90347427 162.43186516 373.90347427 162.43186516 375.35971069 162.42536926 C378.40659586 162.40854263 381.45282563 162.37088321 384.49951172 162.33276367 C386.56200218 162.31772198 388.62450299 162.30403268 390.68701172 162.29174805 C395.74976522 162.25862606 400.81202726 162.20681651 405.87451172 162.14526367 C406.53451172 160.49526367 407.19451172 158.84526367 407.87451172 157.14526367 C404.21561808 152.0016016 400.26523493 152.69435009 394.51513672 152.97338867 Z M352.87451172 189.14526367 C352.21451172 190.79526367 351.55451172 192.44526367 350.87451172 194.14526367 C352.63377783 196.31337762 352.63377783 196.31337762 354.78543091 196.38577271 C355.56264496 196.38133148 356.33985901 196.37689026 357.140625 196.37231445 C358.02138702 196.37216339 358.90214905 196.37201233 359.80960083 196.37185669 C360.76172455 196.36153412 361.71384827 196.35121155 362.69482422 196.34057617 C364.15551834 196.33633133 364.15551834 196.33633133 365.64572144 196.33200073 C368.7637752 196.3207828 371.8815444 196.29567537 374.99951172 196.27026367 C377.11018466 196.26023595 379.22086209 196.25110974 381.33154297 196.24291992 C386.51263007 196.22083825 391.69355057 196.18734497 396.87451172 196.14526367 C397.53451172 194.82526367 398.19451172 193.50526367 398.87451172 192.14526367 C398.21451172 191.15526367 397.55451172 190.16526367 396.87451172 189.14526367 C394.90196036 188.70889939 394.90196036 188.70889939 392.60839844 188.8046875 C391.2872554 188.80502739 391.2872554 188.80502739 389.93942261 188.80537415 C388.98729889 188.820858 388.03517517 188.83634186 387.05419922 188.85229492 C386.08040314 188.85653976 385.10660706 188.86078461 384.103302 188.86515808 C380.98509367 188.88198581 377.86752555 188.91964556 374.74951172 188.95776367 C372.63884395 188.97280521 370.52816608 188.98649454 368.41748047 188.9987793 C363.23627149 189.03190258 358.05543733 189.08214216 352.87451172 189.14526367 Z M339.87451172 224.14526367 C339.21678744 227.17460858 339.21678744 227.17460858 338.87451172 230.14526367 C341.1827168 231.29936621 342.48235448 231.26629337 345.04882812 231.25878906 C345.9095694 231.25871353 346.77031067 231.258638 347.65713501 231.25856018 C348.58738495 231.2533989 349.51763489 231.24823761 350.47607422 231.24291992 C351.42767426 231.24150497 352.37927429 231.24009003 353.35971069 231.2386322 C356.40634269 231.23302379 359.45290184 231.22046987 362.49951172 231.20776367 C364.56201066 231.20274976 366.62451075 231.19818666 368.68701172 231.1940918 C373.74953989 231.18305163 378.81201344 231.16578134 383.87451172 231.14526367 C384.99967257 229.31241924 384.99967257 229.31241924 385.87451172 227.14526367 C385.37951172 225.66026367 385.37951172 225.66026367 384.87451172 224.14526367 C381.45539835 222.43570699 377.54216077 223.00380121 373.78076172 223.01245117 C372.87829712 223.01149445 371.97583252 223.01053772 371.04602051 223.009552 C369.13614838 223.00887088 367.22627394 223.01072046 365.31640625 223.01489258 C362.38650329 223.02024178 359.45675364 223.0149453 356.52685547 223.00854492 C354.67399055 223.00920572 352.82112572 223.0104869 350.96826172 223.01245117 C350.08803345 223.01042694 349.20780518 223.00840271 348.30090332 223.00631714 C343.95129242 222.88856196 343.95129242 222.88856196 339.87451172 224.14526367 Z M-6.12548828 248.14526367 C-6.12548828 279.82526367 -6.12548828 311.50526367 -6.12548828 344.14526367 C43.04451172 344.14526367 92.21451172 344.14526367 142.87451172 344.14526367 C140.39951172 341.17526367 140.39951172 341.17526367 137.87451172 338.14526367 C136.43236601 333.42033891 137.11163227 329.61415047 138.12451172 324.83276367 C138.33539429 323.832854 138.33539429 323.832854 138.55053711 322.81274414 C139.45678276 318.65241374 140.61450362 314.69567667 142.06201172 310.69995117 C143.19164265 307.14813082 143.98863933 303.52725077 144.81201172 299.89526367 C145.99768274 294.67342298 147.30022816 289.56177958 148.93701172 284.45776367 C150.74169941 278.8251642 151.97539152 273.16804944 153.15185547 267.37573242 C153.92922949 263.90066046 154.95693969 260.62836892 156.22607422 257.30541992 C157.1180447 254.33397608 157.43576145 251.21651554 157.87451172 248.14526367 C103.75451172 248.14526367 49.63451172 248.14526367 -6.12548828 248.14526367 Z " fill="#FFFFFF" transform="translate(350.12548828125,440.854736328125)"/>
<path d="M0 0 C4.14141039 1.73186252 6.10300875 3.69830297 8.0625 7.625 C10.23988813 13.06847034 11.69348389 18.77131226 13.16235352 24.43994141 C14.40576705 29.18061586 16.02941066 33.49870548 18 38 C18.94577523 40.68721855 19.7909076 43.40132791 20.625 46.125 C20.8415625 46.81464844 21.058125 47.50429687 21.28125 48.21484375 C22.38865439 51.78998261 23.29943194 55.3261736 24 59 C24.70077667 58.99333817 25.40155334 58.98667633 26.12356567 58.97981262 C32.74391804 58.91957641 39.36419336 58.87396229 45.98475838 58.84456348 C49.38807031 58.82894083 52.79115485 58.80776565 56.19433594 58.77368164 C60.11129997 58.73469966 64.02817351 58.7202626 67.9453125 58.70703125 C69.76906906 58.68380547 69.76906906 58.68380547 71.62966919 58.66011047 C82.21324798 58.65800817 82.21324798 58.65800817 87 62 C90.63982894 65.8824842 90.56135682 70.32329377 90.41796875 75.41015625 C89.79480069 79.27146863 88.09491968 80.73039223 85 83 C84.154375 83.70125 83.30875 84.4025 82.4375 85.125 C81.633125 85.74375 80.82875 86.3625 80 87 C79.278125 87.5775 78.55625 88.155 77.8125 88.75 C76 90 76 90 74 90 C74 90.66 74 91.32 74 92 C72.3203125 93.2890625 72.3203125 93.2890625 70.125 94.625 C69.40570312 95.07101563 68.68640625 95.51703125 67.9453125 95.9765625 C66 97 66 97 64 97 C64 97.66 64 98.32 64 99 C62.05859375 100.55078125 62.05859375 100.55078125 59.4375 102.3125 C56.25074312 104.47316637 53.0949683 106.64735432 50 108.9375 C47 111 47 111 45 111 C45 111.66 45 112.32 45 113 C44.01 113.495 44.01 113.495 43 114 C43.51719406 118.1375525 44.58944066 121.72487115 46.11328125 125.59765625 C47.19660684 128.5326573 48.09628646 131.50493405 49 134.5 C50.06703512 138.02849112 51.14363967 141.50974157 52.5 144.9375 C54.43613582 149.87358253 55.73529506 155.01311333 57.1328125 160.12109375 C57.71364089 162.87134537 57.71364089 162.87134537 59 164 C59.07205511 165.68608966 59.08386068 167.37500659 59.0625 169.0625 C59.05347656 169.98160156 59.04445313 170.90070313 59.03515625 171.84765625 C59.01775391 172.91306641 59.01775391 172.91306641 59 174 C58.34 174 57.68 174 57 174 C56.9175 174.598125 56.835 175.19625 56.75 175.8125 C55.77822147 178.64685403 54.51696446 179.4454043 52 181 C47.65873281 182.44708906 44.03189844 182.86981954 39.71875 181.0234375 C35.46886743 178.71433464 31.7182655 176.09855458 28 173 C27.13375 172.484375 26.2675 171.96875 25.375 171.4375 C23 170 23 170 21.58862305 168.57446289 C19.90455523 166.90540598 18.18391228 165.67693012 16.20703125 164.37109375 C15.49482422 163.89349609 14.78261719 163.41589844 14.04882812 162.92382812 C12.54801129 161.926342 11.04537888 160.93158263 9.54101562 159.93945312 C8.83267578 159.46314453 8.12433594 158.98683594 7.39453125 158.49609375 C6.74331299 158.06482178 6.09209473 157.6335498 5.42114258 157.18920898 C4.95216553 156.79677002 4.48318848 156.40433105 4 156 C4 155.34 4 154.68 4 154 C3.236875 153.71125 2.47375 153.4225 1.6875 153.125 C-1 152 -1 152 -4 150 C-8.02013148 150.40201315 -11.60512251 152.59434108 -14.42138672 155.43237305 C-16.07787322 157.07733126 -17.78572958 158.36618345 -19.6953125 159.70703125 C-20.40727783 160.20847656 -21.11924316 160.70992187 -21.8527832 161.2265625 C-22.60261475 161.74992188 -23.35244629 162.27328125 -24.125 162.8125 C-24.88965576 163.35003906 -25.65431152 163.88757813 -26.44213867 164.44140625 C-30.36120454 167.18829431 -34.3023733 169.88703637 -38.3125 172.5 C-40.57528695 173.97818075 -42.25952829 175.25952829 -44.1875 177.1875 C-47.59195005 180.59195005 -51.23063686 182.1735467 -56 182.4375 C-60.24630623 182.25887909 -62.76068611 180.7873166 -66 178 C-68.92065457 174.49521451 -69.27477544 171.7509405 -69.20507812 167.24316406 C-68.84533007 163.30820562 -67.58977058 159.7207112 -66.3125 156 C-65.75746535 154.31652067 -65.2027833 152.63292504 -64.6484375 150.94921875 C-64.36967773 150.11567871 -64.09091797 149.28213867 -63.80371094 148.42333984 C-62.63536603 144.90055991 -61.53461338 141.35797376 -60.4375 137.8125 C-60.036755 136.52725121 -59.63571327 135.24209491 -59.234375 133.95703125 C-59.03521484 133.31846191 -58.83605469 132.67989258 -58.63085938 132.02197266 C-57.48443442 128.34755645 -56.33580182 124.67383 -55.1875 121 C-54.76431406 119.6458361 -54.34113611 118.2916697 -53.91796875 116.9375 C-53.61503906 115.968125 -53.31210937 114.99875 -53 114 C-53.99 113.505 -53.99 113.505 -55 113 C-55 112.34 -55 111.68 -55 111 C-56.0828125 110.5978125 -56.0828125 110.5978125 -57.1875 110.1875 C-62.02899108 108.14331488 -65.31198452 105.68801548 -69 102 C-71.74868845 100.08231038 -74.55781928 98.28079561 -77.38671875 96.484375 C-78.20785156 95.95328125 -79.02898437 95.4221875 -79.875 94.875 C-80.65617187 94.37742187 -81.43734375 93.87984375 -82.2421875 93.3671875 C-82.82226562 92.91601562 -83.40234375 92.46484375 -84 92 C-84 91.34 -84 90.68 -84 90 C-84.721875 89.731875 -85.44375 89.46375 -86.1875 89.1875 C-88.99766383 88.00098638 -91.48416557 86.72514361 -94 85 C-94 84.34 -94 83.68 -94 83 C-94.598125 82.773125 -95.19625 82.54625 -95.8125 82.3125 C-98.70715882 80.57570471 -99.63035715 79.0816964 -101 76 C-101.53999302 70.96006519 -101.06196869 68.04617291 -98 64 C-93.48362713 59.07304778 -93.48362713 59.07304778 -89.55758667 58.87974548 C-88.53166412 58.88196609 -87.50574158 58.88418671 -86.44873047 58.88647461 C-85.28767792 58.88655014 -84.12662537 58.88662567 -82.9303894 58.88670349 C-81.67203278 58.89186478 -80.41367615 58.89702606 -79.1171875 58.90234375 C-77.83264679 58.9037587 -76.54810608 58.90517365 -75.22463989 58.90663147 C-71.80843158 58.91045089 -68.39226574 58.92027627 -64.97607422 58.93133545 C-61.49056574 58.94156193 -58.0050504 58.94613174 -54.51953125 58.95117188 C-47.67967005 58.96189904 -40.83983706 58.97896858 -34 59 C-33.79444992 58.17526184 -33.58889984 57.35052368 -33.37712097 56.50079346 C-33.10724869 55.41933044 -32.8373764 54.33786743 -32.55932617 53.22363281 C-32.29190109 52.15139465 -32.02447601 51.07915649 -31.74894714 49.97442627 C-30.97212962 46.88931342 -30.15981957 43.81648988 -29.3125 40.75 C-29.06113281 39.83734375 -28.80976563 38.9246875 -28.55078125 37.984375 C-28.36902344 37.32953125 -28.18726563 36.6746875 -28 36 C-27.34 36 -26.68 36 -26 36 C-25.87109375 34.98421875 -25.7421875 33.9684375 -25.609375 32.921875 C-23.92868688 22.10513864 -20.76705476 10.0289222 -13.875 1.3125 C-9.2855023 -0.78270547 -4.94856178 -0.69134319 0 0 Z M-6 58 C-8.32675071 63.93321431 -10.12037671 69.88107183 -11.7421875 76.046875 C-13.22257803 79.52257449 -14.9968099 80.7996429 -18 83 C-18 83.66 -18 84.32 -18 85 C-31.365 85.495 -31.365 85.495 -45 86 C-40.91239437 90.08760563 -36.55561924 93.99997508 -31.125 96.125 C-29 97 -29 97 -27.6875 99.125 C-27.460625 99.74375 -27.23375 100.3625 -27 101 C-26.34 101 -25.68 101 -25 101 C-23.40963585 110.90624416 -25.15238351 118.33527992 -28.75 127.5625 C-29.1625 128.696875 -29.575 129.83125 -30 131 C-29.67 131.66 -29.34 132.32 -29 133 C-27.49460339 132.05016642 -25.99579653 131.08988109 -24.5 130.125 C-23.6646875 129.59132813 -22.829375 129.05765625 -21.96875 128.5078125 C-21.3190625 128.01023437 -20.669375 127.51265625 -20 127 C-20 126.34 -20 125.68 -20 125 C-18.948125 124.62875 -18.948125 124.62875 -17.875 124.25 C-14.87810151 123.08072562 -14.87810151 123.08072562 -12.1875 120.875 C-9.08686854 119.05109914 -6.89852048 118.17404116 -3.2734375 118.34765625 C1.86248394 119.82136567 5.90417917 123.70262044 10 127 C14.10756558 130.53263554 14.10756558 130.53263554 19 132 C17.82844997 125.12209484 17.82844997 125.12209484 15.375 118.625 C13.37995996 113.36534897 12.8191105 108.53588961 14 103 C16.2157495 99.93624761 18.83540275 98.02466168 22 96 C22.61617188 95.59136719 23.23234375 95.18273437 23.8671875 94.76171875 C24.40601563 94.40722656 24.94484375 94.05273438 25.5 93.6875 C26.325 93.130625 27.15 92.57375 28 92 C28 91.34 28 90.68 28 90 C28.78375 89.71125 29.5675 89.4225 30.375 89.125 C33.09671632 88.15087746 33.09671632 88.15087746 35 86 C33.94872925 85.97812622 33.94872925 85.97812622 32.8762207 85.95581055 C29.68776991 85.88114513 26.50034487 85.78454525 23.3125 85.6875 C22.20970703 85.66494141 21.10691406 85.64238281 19.97070312 85.61914062 C18.90400391 85.58369141 17.83730469 85.54824219 16.73828125 85.51171875 C15.26935425 85.47244263 15.26935425 85.47244263 13.77075195 85.43237305 C9.36966784 84.74558831 5.78928012 82.46169586 3 79 C1.9375 76.65234375 1.9375 76.65234375 1 73.9375 C0.66484375 72.97070312 0.3296875 72.00390625 -0.015625 71.0078125 C-1.42696935 66.69537143 -2.75097924 62.3621104 -4 58 C-4.66 58 -5.32 58 -6 58 Z M19 132 C20 134 20 134 20 134 Z " fill="#FFFFFF" transform="translate(461,30)"/>
<path d="M0 0 C6.66779093 4.00067456 9.13311328 6.44363504 11.1875 14 C11.53167969 15.2375 11.87585938 16.475 12.23046875 17.75 C13 21 13 21 13 24 C13.66 24 14.32 24 15 24 C15.16604736 24.6297876 15.33209473 25.2595752 15.50317383 25.90844727 C16.26746376 28.79461602 17.0399133 31.6785416 17.8125 34.5625 C18.07353516 35.55314453 18.33457031 36.54378906 18.60351562 37.56445312 C19.75285195 41.83544366 20.8898192 45.9841176 22.69921875 50.02734375 C24 53 24 53 24 56 C41.82 56 59.64 56 78 56 C78 56.66 78 57.32 78 58 C78.556875 58.061875 79.11375 58.12375 79.6875 58.1875 C83.35119598 59.47474453 84.73941216 60.79750056 87 64 C87.42545016 68.03389782 87.28999222 71.9594418 87 76 C86.34 76 85.68 76 85 76 C84.91492188 76.60714844 84.82984375 77.21429688 84.7421875 77.83984375 C83.78030958 80.63941474 82.67864691 81.14536628 80.125 82.5625 C77.18114271 84.21203278 77.18114271 84.21203278 74.62890625 86.3828125 C72.27856802 88.71624182 69.54681495 90.46589886 66.8125 92.3125 C62.33540658 95.36811626 57.95228187 98.50094038 53.64453125 101.79296875 C51.52095156 103.35160562 49.25728861 104.64562683 47 106 C45.33289654 107.49985609 45.33289654 107.49985609 44 109 C43.34 109.66 42.68 110.32 42 111 C42.24234375 111.65484375 42.4846875 112.3096875 42.734375 112.984375 C45.29165042 119.94803268 47.70573384 126.94552175 50 134 C50.25104492 134.76570312 50.50208984 135.53140625 50.76074219 136.3203125 C51.59716819 138.87809331 52.42450064 141.43867374 53.25 144 C53.52054199 144.82564453 53.79108398 145.65128906 54.06982422 146.50195312 C54.44518311 147.67661133 54.44518311 147.67661133 54.828125 148.875 C55.0540332 149.57367188 55.27994141 150.27234375 55.51269531 150.9921875 C56 153 56 153 56 157 C56.66 157 57.32 157 58 157 C58.37170491 161.64631139 58.42492292 165.0821665 56.4375 169.375 C53.02916339 173.04551635 49.95337913 174.66502316 44.93359375 175.234375 C37.47016072 175.07415819 32.58173066 170.50032234 27 166 C25.67115089 164.9940488 24.3382432 163.9934198 23 163 C22.3709375 162.525625 21.741875 162.05125 21.09375 161.5625 C17.65000854 158.99254368 14.16408017 156.48079036 10.68359375 153.9609375 C7.67218374 151.76046031 4.70437943 149.50792189 1.75390625 147.2265625 C-0.08976143 145.93722697 -1.96653013 144.95640121 -4 144 C-8.37030696 146.883808 -12.72034846 149.76996648 -16.9375 152.875 C-20 155 -20 155 -22 155 C-22.33 155.99 -22.66 156.98 -23 158 C-24.57421875 159.25390625 -24.57421875 159.25390625 -26.6875 160.5625 C-29.6897053 162.45862967 -32.58200444 164.41379465 -35.39453125 166.578125 C-46.83771797 175.32025099 -46.83771797 175.32025099 -53.09765625 175.30859375 C-56.2760869 174.79299617 -58.4053127 173.89855168 -61 172 C-62.375 169.3125 -62.375 169.3125 -63 167 C-63.66 167 -64.32 167 -65 167 C-66.6864145 159.5516693 -64.77856876 154.9464219 -62 148 C-59.01631175 139.50643412 -56.31506985 130.92180193 -53.6875 122.3125 C-53.4208252 121.45084229 -53.15415039 120.58918457 -52.87939453 119.70141602 C-52.63431152 118.88858154 -52.38922852 118.07574707 -52.13671875 117.23828125 C-51.91717529 116.51680908 -51.69763184 115.79533691 -51.47143555 115.05200195 C-50.85072606 112.70117032 -50.85072606 112.70117032 -51 109 C-51.99 108.505 -51.99 108.505 -53 108 C-53 107.34 -53 106.68 -53 106 C-54.0828125 105.5978125 -54.0828125 105.5978125 -55.1875 105.1875 C-58.60614827 103.74407073 -61.7839661 102.2349654 -64.41137695 99.56665039 C-66.09653708 97.90479815 -67.81957233 96.67462835 -69.79296875 95.37109375 C-70.50517578 94.89349609 -71.21738281 94.41589844 -71.95117188 93.92382812 C-73.45198871 92.926342 -74.95462112 91.93158263 -76.45898438 90.93945312 C-77.16732422 90.46314453 -77.87566406 89.98683594 -78.60546875 89.49609375 C-79.25668701 89.06482178 -79.90790527 88.6335498 -80.57885742 88.18920898 C-81.04783447 87.79677002 -81.51681152 87.40433105 -82 87 C-82 86.34 -82 85.68 -82 85 C-82.7425 84.731875 -83.485 84.46375 -84.25 84.1875 C-86.89061949 83.04723249 -88.85552844 81.90619694 -91 80 C-91 79.34 -91 78.68 -91 78 C-91.66 78 -92.32 78 -93 78 C-95.4928367 74.26074495 -95.53769049 70.33621361 -95 66 C-93.12657061 61.26132567 -89.56368118 58.14893667 -85 56 C-80.82465092 55.32639911 -76.72391872 55.41661115 -72.50390625 55.51171875 C-71.31522446 55.51879349 -70.12654266 55.52586823 -68.90184021 55.53315735 C-65.12140834 55.5610489 -61.34248097 55.623783 -57.5625 55.6875 C-54.99286 55.7125894 -52.42319668 55.73540143 -49.85351562 55.75585938 C-43.56850085 55.81085872 -37.28435794 55.89443485 -31 56 C-30.85216064 54.730354 -30.70432129 53.46070801 -30.55200195 52.15258789 C-30.17996964 48.95757037 -29.54605639 46.37652836 -28.1875 43.4375 C-25.36903809 36.84044081 -23.73989959 29.94108881 -22 23 C-21.34 23 -20.68 23 -20 23 C-19.896875 22.05125 -19.79375 21.1025 -19.6875 20.125 C-17.62241241 6.72910287 -17.62241241 6.72910287 -12 2.4375 C-7.80045169 -0.37015256 -4.95221325 -1.49718075 0 0 Z M-4 57 C-4.17015625 57.60585937 -4.3403125 58.21171875 -4.515625 58.8359375 C-6.10182336 64.32013395 -7.94848312 69.59653095 -10.1328125 74.87109375 C-10.81916965 76.55606963 -11.42465403 78.2739621 -12 80 C-17.4506911 82.66196542 -23.43171267 82.44094981 -29.375 82.625 C-30.39722656 82.66367188 -31.41945313 82.70234375 -32.47265625 82.7421875 C-34.98159597 82.83597964 -37.49053764 82.92167879 -40 83 C-39.34 83.33 -38.68 83.66 -38 84 C-38 84.66 -38 85.32 -38 86 C-36.05385473 87.59348861 -36.05385473 87.59348861 -33.625 89.125 C-32.81289063 89.66382813 -32.00078125 90.20265625 -31.1640625 90.7578125 C-29.12677974 92.1659413 -29.12677974 92.1659413 -27 92 C-27 92.66 -27 93.32 -27 94 C-25.37550757 95.70779973 -23.70779973 97.37550757 -22 99 C-20.34346314 100.65653686 -20.82893835 102.60650796 -20.8125 104.875 C-20.79832031 105.75929687 -20.78414062 106.64359375 -20.76953125 107.5546875 C-21 110 -21 110 -23 113 C-23.60103341 115.21389829 -24.13675809 117.44602579 -24.625 119.6875 C-24.88539063 120.86699219 -25.14578125 122.04648438 -25.4140625 123.26171875 C-25.60742188 124.16535156 -25.80078125 125.06898438 -26 126 C-23.69 124.68 -21.38 123.36 -19 122 C-19 121.34 -19 120.68 -19 120 C-18.278125 119.731875 -17.55625 119.46375 -16.8125 119.1875 C-14.00233617 118.00098638 -11.51583443 116.72514361 -9 115 C-9 114.34 -9 113.68 -9 113 C0.10127191 112.68412071 5.15114967 116.37650308 12 122 C14.68528164 124.37769777 14.68528164 124.37769777 18 125 C17.54678672 122.93636888 17.08720894 120.87413493 16.625 118.8125 C16.24214844 117.08966797 16.24214844 117.08966797 15.8515625 115.33203125 C15.09734415 112.06233902 15.09734415 112.06233902 13.90234375 109.31640625 C12.50027919 105.71716691 12.74016413 102.56839996 14 99 C17.58978593 93.92956052 22.77829856 90.59952047 27.984375 87.359375 C29.91600723 86.05664629 31.38345733 84.66479768 33 83 C31.9941687 82.97812622 31.9941687 82.97812622 30.96801758 82.95581055 C27.91561178 82.881117 24.86427415 82.78452701 21.8125 82.6875 C20.22985352 82.65366211 20.22985352 82.65366211 18.61523438 82.61914062 C17.59365234 82.58369141 16.57207031 82.54824219 15.51953125 82.51171875 C14.11344604 82.47244263 14.11344604 82.47244263 12.67895508 82.43237305 C9.51300681 81.92140117 7.5936124 80.86103313 5 79 C0.78835061 72.40397767 -1.20462114 64.54642983 -3 57 C-3.33 57 -3.66 57 -4 57 Z " fill="#FFFFFF" transform="translate(710,99)"/>
<path d="M0 0 C3.67260721 1.89836556 5.51704225 3.38128841 7.19921875 7.2421875 C7.85919892 9.45058268 8.46792623 11.67517681 9.015625 13.9140625 C9.98056297 17.56127297 11.40077341 20.80746301 12.90234375 24.265625 C13.75079085 26.80298717 14.56602269 29.33142733 15.33984375 31.890625 C15.55084717 32.57850098 15.76185059 33.26637695 15.97924805 33.97509766 C16.41107368 35.38335879 16.84150239 36.79204905 17.27050781 38.20117188 C17.87574898 40.17872957 18.49212367 42.15239119 19.11328125 44.125 C19.47679687 45.28515625 19.8403125 46.4453125 20.21484375 47.640625 C20.54097656 48.67960937 20.86710937 49.71859375 21.203125 50.7890625 C21.90234375 53.265625 21.90234375 53.265625 21.90234375 55.265625 C22.56109497 55.25230133 23.21984619 55.23897766 23.89855957 55.22525024 C30.77690028 55.09214257 37.65487308 55.00186164 44.53417969 54.93603516 C47.09878408 54.90592809 49.66328605 54.86503273 52.22753906 54.81298828 C55.92148145 54.73991184 59.61405849 54.70610569 63.30859375 54.6796875 C65.01843445 54.63323593 65.01843445 54.63323593 66.76281738 54.58584595 C73.38128068 54.58307006 77.36882003 55.38696597 82.49743652 59.68075562 C85.59245258 63.17222901 85.18218098 67.42747074 85.10546875 71.83203125 C84.82602472 75.17998568 84.18143926 76.77286429 81.90234375 79.265625 C79.92904289 80.63460247 77.9313678 81.874244 75.83984375 83.0546875 C73.89053636 84.16947263 73.89053636 84.16947263 72.51220703 85.67211914 C70.8427929 87.32457076 69.12829946 88.62360341 67.20703125 89.97265625 C66.49498535 90.47418213 65.78293945 90.97570801 65.04931641 91.49243164 C64.29956543 92.01571045 63.54981445 92.53898926 62.77734375 93.078125 C62.01341309 93.61493896 61.24948242 94.15175293 60.46240234 94.70483398 C55.88333774 97.91329753 51.27759109 101.0695007 46.56640625 104.08203125 C44.8266867 105.24353353 44.8266867 105.24353353 43.30078125 106.91796875 C41.90234375 108.265625 41.90234375 108.265625 39.90234375 108.265625 C40.83859532 111.24518542 41.77658132 114.22419725 42.71484375 117.203125 C42.97587891 118.03392578 43.23691406 118.86472656 43.50585938 119.72070312 C45.53738972 126.16642285 47.61515233 132.59474578 49.8515625 138.97265625 C50.09519531 139.66746094 50.33882812 140.36226562 50.58984375 141.078125 C50.96689453 142.13966797 50.96689453 142.13966797 51.3515625 143.22265625 C51.90234375 145.265625 51.90234375 145.265625 51.90234375 149.265625 C52.56234375 149.265625 53.22234375 149.265625 53.90234375 149.265625 C57.4044238 161.74178516 57.4044238 161.74178516 54.33984375 168.015625 C51.90964866 171.80161314 49.27071271 173.10072661 44.90234375 174.265625 C40.58792552 174.30594667 36.60359948 173.57890983 32.90234375 171.265625 C32.90234375 170.605625 32.90234375 169.945625 32.90234375 169.265625 C32.19078125 169.01941406 31.47921875 168.77320313 30.74609375 168.51953125 C27.54711949 167.10899452 25.15975762 165.35072619 22.40234375 163.203125 C16.85173316 158.93661089 11.15166261 154.9914041 5.32421875 151.11328125 C4.525 150.50355469 3.72578125 149.89382812 2.90234375 149.265625 C2.90234375 148.605625 2.90234375 147.945625 2.90234375 147.265625 C2.15984375 146.976875 1.41734375 146.688125 0.65234375 146.390625 C-1.66505422 145.44259856 -3.8768274 144.41716589 -6.09765625 143.265625 C-7.04640625 143.925625 -7.99515625 144.585625 -8.97265625 145.265625 C-12.09765625 147.265625 -12.09765625 147.265625 -14.09765625 147.265625 C-14.09765625 147.925625 -14.09765625 148.585625 -14.09765625 149.265625 C-15.93359375 150.74609375 -15.93359375 150.74609375 -18.47265625 152.453125 C-19.3853125 153.07445312 -20.29796875 153.69578125 -21.23828125 154.3359375 C-22.181875 154.97273437 -23.12546875 155.60953125 -24.09765625 156.265625 C-25.80879579 157.44907779 -27.51723404 158.63644799 -29.22265625 159.828125 C-30.03992188 160.39789063 -30.8571875 160.96765625 -31.69921875 161.5546875 C-34.69544504 163.69206065 -37.60888904 165.92710483 -40.50390625 168.19921875 C-42.09765625 169.265625 -42.09765625 169.265625 -44.09765625 169.265625 C-44.09765625 169.925625 -44.09765625 170.585625 -44.09765625 171.265625 C-48.99157374 173.8687726 -52.49321892 174.76627031 -58.015625 173.91015625 C-62.08807724 172.6494534 -64.06210636 169.74498199 -66.41015625 166.390625 C-68.35917795 160.36637612 -66.60484777 154.62089658 -64.78515625 148.828125 C-64.57181641 148.11591797 -64.35847656 147.40371094 -64.13867188 146.66992188 C-63.06183191 143.13081501 -61.8890977 139.65405361 -60.56640625 136.19921875 C-59.12690708 132.43312498 -57.99328373 128.64994423 -56.91015625 124.765625 C-56.56597656 123.5384375 -56.22179687 122.31125 -55.8671875 121.046875 C-55.48626953 119.67015625 -55.48626953 119.67015625 -55.09765625 118.265625 C-54.43765625 118.265625 -53.77765625 118.265625 -53.09765625 118.265625 C-52.76765625 115.295625 -52.43765625 112.325625 -52.09765625 109.265625 C-52.79890625 108.75773437 -53.50015625 108.24984375 -54.22265625 107.7265625 C-62.9194714 101.41664498 -62.9194714 101.41664498 -66.84765625 98.453125 C-70.76124628 95.50375281 -74.70902201 92.60187685 -78.66015625 89.703125 C-79.28567383 89.24381592 -79.91119141 88.78450684 -80.55566406 88.3112793 C-83.6648759 86.03247046 -86.78737054 83.77892654 -89.94140625 81.5625 C-93.20896466 79.18462334 -94.67979491 78.01878737 -96.09765625 74.265625 C-96.6334339 69.70019577 -96.65849807 65.69888743 -94.97265625 61.390625 C-91.83254225 57.83182913 -89.24914342 55.58843693 -84.5112915 54.87756348 C-81.30842346 54.70677731 -78.12540538 54.65974254 -74.91796875 54.65625 C-73.75006805 54.63971375 -72.58216736 54.62317749 -71.37887573 54.60614014 C-67.66008231 54.55767647 -63.94169782 54.53629168 -60.22265625 54.515625 C-57.69659403 54.48746413 -55.17055084 54.45753655 -52.64453125 54.42578125 C-46.46231377 54.35191765 -40.28021123 54.30026545 -34.09765625 54.265625 C-33.45602451 52.51896213 -32.81604602 50.77169189 -32.17675781 49.02416992 C-31.82019104 48.05122482 -31.46362427 47.07827972 -31.09625244 46.07585144 C-29.8628184 42.60474973 -28.83177008 39.12796418 -27.84765625 35.578125 C-27.5125 34.37800781 -27.17734375 33.17789063 -26.83203125 31.94140625 C-26.5896875 31.05839844 -26.34734375 30.17539063 -26.09765625 29.265625 C-25.43765625 29.265625 -24.77765625 29.265625 -24.09765625 29.265625 C-23.97519531 28.27433594 -23.85273438 27.28304687 -23.7265625 26.26171875 C-23.1446238 22.18814788 -22.13501413 18.28839065 -21.03515625 14.328125 C-20.84888672 13.64427734 -20.66261719 12.96042969 -20.47070312 12.25585938 C-20.01676568 10.59142207 -19.55774709 8.92837188 -19.09765625 7.265625 C-18.43765625 7.265625 -17.77765625 7.265625 -17.09765625 7.265625 C-17.0203125 6.66363281 -16.94296875 6.06164062 -16.86328125 5.44140625 C-15.83456683 2.51796782 -14.53353216 1.92502057 -11.84765625 0.453125 C-11.079375 0.01355469 -10.31109375 -0.42601563 -9.51953125 -0.87890625 C-5.91272277 -2.15292408 -3.50538735 -1.22721196 0 0 Z M-6.09765625 56.265625 C-6.49597656 57.50699219 -6.89429688 58.74835938 -7.3046875 60.02734375 C-7.83952087 61.66937603 -8.3746951 63.31129732 -8.91015625 64.953125 C-9.17119141 65.76974609 -9.43222656 66.58636719 -9.70117188 67.42773438 C-13.19146737 78.07098115 -13.19146737 78.07098115 -16.85571289 80.36743164 C-19.51362792 81.4322764 -21.65995326 81.58436823 -24.51953125 81.6796875 C-25.54433594 81.71835938 -26.56914062 81.75703125 -27.625 81.796875 C-29.22021484 81.84328125 -29.22021484 81.84328125 -30.84765625 81.890625 C-31.92660156 81.92929688 -33.00554687 81.96796875 -34.1171875 82.0078125 C-36.777174 82.10197131 -39.43715565 82.18759887 -42.09765625 82.265625 C-39.11269097 85.38197079 -36.28400409 87.96405809 -32.59765625 90.203125 C-28.47724973 92.92025451 -25.64718366 94.98899838 -23.09765625 99.265625 C-22.29689066 104.94635028 -23.12115725 110.65075573 -24.09765625 116.265625 C-24.75765625 116.265625 -25.41765625 116.265625 -26.09765625 116.265625 C-26.75765625 119.235625 -27.41765625 122.205625 -28.09765625 125.265625 C-25.78765625 123.945625 -23.47765625 122.625625 -21.09765625 121.265625 C-21.09765625 120.605625 -21.09765625 119.945625 -21.09765625 119.265625 C-20.37578125 118.9975 -19.65390625 118.729375 -18.91015625 118.453125 C-16.09999242 117.26661138 -13.61349068 115.99076861 -11.09765625 114.265625 C-11.09765625 113.605625 -11.09765625 112.945625 -11.09765625 112.265625 C-7.46765625 112.265625 -3.83765625 112.265625 -0.09765625 112.265625 C-0.09765625 112.925625 -0.09765625 113.585625 -0.09765625 114.265625 C1.75234071 115.71854027 1.75234071 115.71854027 4.08984375 117.140625 C6.81099533 118.88626941 9.31986782 120.60319765 11.83984375 122.640625 C13.72655032 124.47191574 13.72655032 124.47191574 15.90234375 124.265625 C15.61359375 123.2034375 15.32484375 122.14125 15.02734375 121.046875 C14.65183099 119.61992651 14.27685995 118.19283538 13.90234375 116.765625 C13.61617187 115.72148437 13.61617187 115.72148437 13.32421875 114.65625 C11.54569151 107.79621637 10.68359596 100.86405796 13.90234375 94.265625 C15.77734375 93.640625 15.77734375 93.640625 17.90234375 93.265625 C19.25808123 91.95507877 20.58847206 90.61813997 21.90234375 89.265625 C23.896062 87.92291679 25.89579995 86.58909006 27.90234375 85.265625 C28.9210741 84.28471294 29.92579467 83.28853843 30.90234375 82.265625 C29.90436768 82.25160645 29.90436768 82.25160645 28.88623047 82.23730469 C25.84920356 82.18336481 22.81367796 82.09976438 19.77734375 82.015625 C18.20726562 81.99435547 18.20726562 81.99435547 16.60546875 81.97265625 C10.68620891 81.7853379 6.31131286 81.64624061 1.90234375 77.265625 C0.7101101 74.7017439 -0.11453279 72.56995389 -0.84765625 69.890625 C-1.04230469 69.24351562 -1.23695313 68.59640625 -1.4375 67.9296875 C-2.00353951 66.04542176 -2.55087961 64.15557034 -3.09765625 62.265625 C-3.7548625 60.26249635 -4.41802891 58.26125801 -5.09765625 56.265625 C-5.42765625 56.265625 -5.75765625 56.265625 -6.09765625 56.265625 Z " fill="#FFFFFF" transform="translate(211.09765625,99.734375)"/>
<path d="M0 0 C2.95112106 0.89963445 5.91311948 1.76153653 8.875 2.625 C10.050625 2.96917969 10.050625 2.96917969 11.25 3.3203125 C13.16637583 3.88120299 15.08314765 4.44074018 17 5 C17 5.66 17 6.32 17 7 C17.60328125 7.19335938 18.2065625 7.38671875 18.828125 7.5859375 C20.02695312 7.97652344 20.02695312 7.97652344 21.25 8.375 C22.03890625 8.63023437 22.8278125 8.88546875 23.640625 9.1484375 C28.11881923 10.76473939 30.64534243 12.64534243 34 16 C35.2065625 16.7115625 35.2065625 16.7115625 36.4375 17.4375 C39.47380473 19.28890532 41.53969072 21.42525774 44 24 C44.64453125 24.62390625 45.2890625 25.2478125 45.953125 25.890625 C49.86613799 29.68769686 53.16363321 33.30532394 56 38 C56.58007812 38.90685547 56.58007812 38.90685547 57.171875 39.83203125 C68 56.77604167 68 56.77604167 68 65 C68.66 65 69.32 65 70 65 C76.21379142 92.88808766 73.96622293 119.2865447 59 144 C57.12883964 146.78060702 55.10006184 149.38950647 53 152 C52.319375 152.88816406 51.63875 153.77632812 50.9375 154.69140625 C46.16913657 160.77603666 41.38751015 165.65060987 35 170 C34.13375 170.59554687 33.2675 171.19109375 32.375 171.8046875 C15.62060858 182.89495228 -2.01725999 188.40372222 -22.0625 188.375 C-23.24118652 188.37338867 -24.41987305 188.37177734 -25.63427734 188.37011719 C-38.56695825 188.19022718 -51.53789166 186.37653126 -63 180 C-63.55204102 179.69481445 -64.10408203 179.38962891 -64.67285156 179.07519531 C-69.868313 176.19064032 -75.05343975 173.29770684 -80 170 C-80 169.34 -80 168.68 -80 168 C-80.58265625 167.731875 -81.1653125 167.46375 -81.765625 167.1875 C-89.32477 163.17005231 -95.22285007 155.94973673 -100 149 C-100 148.34 -100 147.68 -100 147 C-100.66 147 -101.32 147 -102 147 C-107.30669151 137.69560088 -111.40125362 128.53311232 -114.34375 118.234375 C-114.86312739 116.46601866 -115.47786159 114.72570244 -116.125 113 C-120.63971066 97.52099202 -119.27502702 76.67958809 -113 62 C-112.2616009 60.00339017 -111.53283651 58.00319728 -110.8125 56 C-110.46832031 55.05125 -110.12414062 54.1025 -109.76953125 53.125 C-109.51558594 52.42375 -109.26164062 51.7225 -109 51 C-108.34 51 -107.68 51 -107 51 C-106.93039062 50.31550781 -106.86078125 49.63101563 -106.7890625 48.92578125 C-105.75800803 45.10271295 -103.70081144 42.31957576 -101.375 39.1875 C-100.92205566 38.5680249 -100.46911133 37.9485498 -100.00244141 37.31030273 C-85.5349083 17.72195013 -66.31422964 4.61114097 -42.32421875 -0.2734375 C-39.17074492 -0.64931721 -39.17074492 -0.64931721 -38 -2 C-25.46862824 -3.87970576 -12.06073951 -4.14993187 0 0 Z M-59 34 C-59 34.66 -59 35.32 -59 36 C-59.66 36.185625 -60.32 36.37125 -61 36.5625 C-71.01095612 41.35941648 -79.12655051 52.21197486 -84 62 C-84.39764263 63.98821313 -84.75455166 65.98732362 -85 68 C-85.99 68.495 -85.99 68.495 -87 69 C-93.0555017 84.12426741 -92.94145847 102.89422634 -86.79296875 117.95703125 C-85.60264332 120.35566285 -84.32909417 122.67628569 -83 125 C-82.54625 126.010625 -82.0925 127.02125 -81.625 128.0625 C-79.23952445 132.3747058 -76.34407141 136.37389847 -73 140 C-72.34 140 -71.68 140 -71 140 C-70.74734375 140.59167969 -70.4946875 141.18335938 -70.234375 141.79296875 C-65.21023154 150.77601007 -52.20122777 155.7529482 -42.94921875 159.10546875 C-27.11889522 163.47882661 -8.10792625 162.38754235 7 156 C7 155.34 7 154.68 7 154 C7.70125 153.9175 8.4025 153.835 9.125 153.75 C12.65897727 152.82809289 15.11120762 151.1337671 18 149 C18.6703125 148.55011719 19.340625 148.10023438 20.03125 147.63671875 C33.54112137 138.05136987 42.26803568 122.72360986 45.53125 106.640625 C47.99420122 87.51170389 45.7544877 67.99835743 33.71142578 52.32275391 C28.99697887 46.61138883 23.70882061 41.68671735 18 37 C17.01 36.175 16.02 35.35 15 34.5 C-8.05273108 18.63520289 -35.20111493 23.12633891 -59 34 Z " fill="#FFFFFF" transform="translate(478,242)"/>
</svg>
