<?xml version="1.0" encoding="UTF-8"?>
<svg version="1.1" xmlns="http://www.w3.org/2000/svg" width="900" height="837">
<path d="M0 0 C17.39675229 9.41797412 37.79915011 8.64914352 57.00756836 7.17089844 C58.23999268 7.08521606 58.23999268 7.08521606 59.49731445 6.99780273 C60.57553467 6.90970337 60.57553467 6.90970337 61.67553711 6.81982422 C64.14318754 6.96475348 65.62238253 7.63308548 67.70825195 8.93920898 C70.62947708 13.90529171 70.35228078 19.16743935 69.09106445 24.59545898 C66.14780726 34.28476584 61.31910148 43.52293469 55.70825195 51.93920898 C55.04825195 51.93920898 54.38825195 51.93920898 53.70825195 51.93920898 C53.91321289 52.6778418 54.11817383 53.41647461 54.3293457 54.17749023 C54.59875977 55.19198242 54.86817383 56.20647461 55.14575195 57.25170898 C55.54600586 58.7309082 55.54600586 58.7309082 55.9543457 60.23999023 C57.73826328 68.9932024 57.86654554 77.87760534 57.8762207 86.78295898 C57.8795491 87.87330444 57.8828775 88.9636499 57.88630676 90.08703613 C57.89133498 92.37613508 57.89371637 94.66524124 57.89355469 96.9543457 C57.89574608 100.4298926 57.91395945 103.90512407 57.93286133 107.38061523 C57.93579526 109.61889541 57.93778006 111.85717708 57.9387207 114.09545898 C57.94590622 115.11973999 57.95309174 116.144021 57.960495 117.19934082 C57.91418854 132.02043702 54.48588883 144.91611181 44.03637695 155.90405273 C33.14779431 165.42242783 21.81835769 168.43142198 7.70825195 167.93920898 C7.70825195 174.53920898 7.70825195 181.13920898 7.70825195 187.93920898 C9.35825195 188.59920898 11.00825195 189.25920898 12.70825195 189.93920898 C14.7831238 191.62312248 16.71462814 193.29410564 18.64575195 195.12670898 C19.17716797 195.6264624 19.70858398 196.12621582 20.25610352 196.64111328 C36.2820275 211.86180107 44.41329284 230.94879633 45.70825195 252.93920898 C45.82237697 258.66933828 45.80358473 264.39584066 45.77075195 270.12670898 C45.76572392 271.66642106 45.76116334 273.20613474 45.75708008 274.74584961 C45.74618459 278.47700327 45.72899277 282.20809552 45.70825195 285.93920898 C46.73072021 285.91826172 47.75318848 285.89731445 48.80664062 285.87573242 C52.6626134 285.80239048 56.51852696 285.75707354 60.375 285.71948242 C62.03233261 285.69957838 63.68959701 285.67244485 65.34667969 285.63745117 C83.40300038 285.2661691 96.99936173 288.82438858 110.3840332 301.46655273 C120.5895743 312.30680833 124.42110399 324.76923643 123.98950195 339.67749023 C122.62236895 355.53243552 115.68921416 367.51325176 103.55200195 377.75952148 C90.5201814 387.15565297 75.52845523 387.098044 60.14575195 387.00170898 C58.74145668 386.99668264 57.33715966 386.99212175 55.93286133 386.98803711 C52.52461292 386.97632492 49.11645555 386.9599227 45.70825195 386.93920898 C45.723479 387.92195801 45.73870605 388.90470703 45.75439453 389.91723633 C45.86303505 401.97411703 45.86303505 401.97411703 45.0324707 406.66577148 C43.70016721 413.96213414 43.70016721 413.96213414 45.82397461 420.82543945 C48.8567481 424.54293503 52.4432641 427.59455983 56.14624023 430.62426758 C58.02225906 432.2035482 59.58717674 433.92367749 61.14575195 435.81420898 C64.39185132 439.62658121 67.78772297 443.28395611 71.20825195 446.93920898 C71.80653809 447.57866455 72.40482422 448.21812012 73.02124023 448.87695312 C76.22155543 452.29334646 79.42740968 455.70451878 82.6340332 459.11499023 C89.40569909 466.32009692 96.14357487 473.5438522 102.70825195 480.93920898 C103.29678955 481.49624512 103.88532715 482.05328125 104.49169922 482.62719727 C111.49038727 489.64525361 114.36249058 497.84085958 117.77075195 506.93920898 C118.34768645 508.44121971 118.92645471 509.9425274 119.50708008 511.44311523 C120.37578109 513.69066364 121.24318633 515.93862939 122.10464478 518.18896484 C126.17647896 528.81959069 130.29464857 539.39941764 135.52807617 549.51879883 C137.93595715 554.45709673 139.8072884 559.62478669 141.77075195 564.75170898 C142.73219199 567.22911945 143.69511094 569.70587225 144.66137695 572.18139648 C145.03200005 573.13153877 145.03200005 573.13153877 145.41011047 574.10087585 C148.19824777 581.22661508 151.09829764 588.30520456 154.02075195 595.37670898 C154.49971924 596.54113525 154.97868652 597.70556152 155.47216797 598.90527344 C158.29291867 605.70814565 161.29197737 612.40180108 164.40673828 619.07470703 C165.91034425 622.38399401 167.1661334 625.70747068 168.39575195 629.12670898 C173.26082126 641.87008448 181.41139263 653.24064222 189.05200195 664.45874023 C194.05199522 671.9469377 194.05199522 671.9469377 194.45825195 677.00170898 C194.57426758 678.25661133 194.57426758 678.25661133 194.69262695 679.53686523 C194.70825195 681.93920898 194.70825195 681.93920898 193.70825195 685.93920898 C197.66825195 686.26920898 201.62825195 686.59920898 205.70825195 686.93920898 C205.69936951 685.25680115 205.69048706 683.57439331 205.68133545 681.84100342 C205.60034779 666.00770502 205.54009352 650.17447077 205.50100327 634.34101486 C205.48037134 626.20032182 205.45223885 618.05978331 205.40649414 609.91918945 C205.36664548 602.82446257 205.34082372 595.72984759 205.33189797 588.63501191 C205.32667982 584.87772663 205.31440265 581.12076153 205.28533173 577.3635788 C205.2531536 573.17087047 205.25229126 568.97872003 205.25415039 564.78588867 C205.23976929 563.53792007 205.22538818 562.28995148 205.21057129 561.00416565 C205.21606995 559.8627562 205.2215686 558.72134674 205.22723389 557.54534912 C205.22354671 556.55349987 205.21985954 555.56165062 205.21606064 554.53974533 C205.84959713 551.19239921 207.07163812 550.03159485 209.70825195 547.93920898 C212.78211646 546.91458748 214.86121885 546.81589746 218.08024597 546.81895447 C219.1950383 546.8175798 220.30983063 546.81620514 221.45840454 546.81478882 C222.6819162 546.81838409 223.90542786 546.82197937 225.16601562 546.82568359 C227.09787971 546.82546455 227.09787971 546.82546455 229.06877136 546.82524109 C232.60155281 546.82495386 236.13430039 546.83083867 239.66707397 546.83781505 C243.35863941 546.84406086 247.0502056 546.84465336 250.74177551 546.84584045 C257.73279505 546.84895014 264.72379897 546.85715866 271.71481162 546.86718994 C279.67361515 546.87836232 287.63241942 546.88386437 295.59122884 546.88888538 C311.96357902 546.89934156 328.3359135 546.916934 344.70825195 546.93920898 C344.70364299 546.22321722 344.69903402 545.50722546 344.69428539 544.76953697 C344.5838328 527.34271329 344.50110844 509.91597858 344.44919109 492.48888206 C344.42341645 484.06122639 344.3882803 475.63380447 344.33105469 467.20629883 C344.28119678 459.86031551 344.24895555 452.51450149 344.23780948 445.16835368 C344.23129466 441.27902876 344.2159992 437.39018812 344.17960167 433.50101852 C344.14560393 429.83851812 344.13520626 426.17670037 344.14271355 422.51405716 C344.14068718 420.53272027 344.11381165 418.55145734 344.08615112 416.5703125 C344.14244673 406.85455696 344.14244673 406.85455696 347.05622864 403.15591431 C350.66066696 400.14312873 353.16196251 399.81397631 357.70492554 399.80549622 C359.25268425 399.79909874 359.25268425 399.79909874 360.83171082 399.79257202 C362.52896049 399.7932518 362.52896049 399.7932518 364.26049805 399.79394531 C365.45259384 399.7905867 366.64468964 399.78722809 367.87290955 399.7837677 C371.14363437 399.77588818 374.41432112 399.77258969 377.6850543 399.77195191 C379.72889827 399.7712412 381.77273559 399.76910648 383.81657791 399.7664547 C390.94811679 399.75720188 398.07963696 399.75311969 405.21118164 399.75390625 C411.85664625 399.7545069 418.50202964 399.74395752 425.14747369 399.72816259 C430.85457534 399.71508177 436.56165047 399.70972259 442.268767 399.71036166 C445.67660668 399.71061651 449.08437421 399.7077727 452.49219894 399.69718361 C456.29394046 399.68740693 460.09547203 399.69025274 463.8972168 399.69628906 C465.02466812 399.69066956 466.15211945 399.68505005 467.31373596 399.67926025 C468.86995415 399.68555199 468.86995415 399.68555199 470.45761108 399.69197083 C471.35614996 399.69142606 472.25468884 399.69088129 473.18045616 399.69032001 C476.03240052 399.97112493 478.14150595 400.67536414 480.70825195 401.93920898 C482.89306767 404.65139401 483.64296792 406.49154702 484.14575195 409.93920898 C483.59942381 413.68545911 482.36221667 415.28524427 479.70825195 417.93920898 C476.81979384 418.90202835 475.01954557 419.06276376 472.01960754 419.0594635 C471.05626999 419.06083817 470.09293243 419.06221283 469.10040283 419.06362915 C467.51760529 419.05823624 467.51760529 419.05823624 465.90283203 419.05273438 C464.23431435 419.05295341 464.23431435 419.05295341 462.53208923 419.05317688 C458.84730087 419.05247899 455.16256276 419.04469229 451.4777832 419.03686523 C448.926163 419.03500062 446.37454244 419.03357692 443.82292175 419.03257751 C437.78813073 419.02914661 431.75336134 419.02126129 425.71857899 419.01122802 C418.84802598 419.00005303 411.9774721 418.99455294 405.10691226 418.98953259 C390.97401546 418.97907832 376.8411347 418.96148751 362.70825195 418.93920898 C362.71378271 420.02369261 362.71378271 420.02369261 362.7194252 421.13008499 C362.8077284 438.7147884 362.87393819 456.29943557 362.91550064 473.88431168 C362.93613372 482.38820605 362.96426845 490.89195251 363.01000977 499.39575195 C363.04985484 506.80690507 363.07567934 514.21795108 363.08460593 521.62920833 C363.08982468 525.55416162 363.10210574 529.47880847 363.13117218 533.40366364 C363.15830475 537.09728158 363.16670149 540.79046659 363.16068268 544.48417473 C363.16230933 546.48733411 363.18384344 548.49044625 363.20593262 550.4934845 C363.20043396 551.68537888 363.1949353 552.87727325 363.18927002 554.10528564 C363.19480078 555.65942862 363.19480078 555.65942862 363.20044327 557.24496841 C362.57620669 560.66202082 361.40578069 561.81628217 358.70825195 563.93920898 C355.63438745 564.96383049 353.55528505 565.06252051 350.33625793 565.0594635 C349.22146561 565.06083817 348.10667328 565.06221283 346.95809937 565.06362915 C345.73458771 565.06003387 344.51107605 565.0564386 343.25048828 565.05273438 C341.31862419 565.05295341 341.31862419 565.05295341 339.34773254 565.05317688 C335.8149511 565.05346411 332.28220351 565.0475793 328.74942994 565.04060292 C325.0578645 565.03435711 321.3662983 565.03376461 317.67472839 565.03257751 C310.68370886 565.02946783 303.69270494 565.02125931 296.70169228 565.01122802 C288.74288875 565.00005565 280.78408448 564.9945536 272.82527506 564.98953259 C256.45292488 564.97907641 240.08059041 564.96148396 223.70825195 564.93920898 C223.71193913 565.63127567 223.7156263 566.32334236 223.7194252 567.03638077 C223.80773353 583.87002013 223.87394066 600.70358621 223.91550064 617.53740311 C223.93613257 625.67809615 223.96426505 633.81863466 224.01000977 641.95922852 C224.04985842 649.0539554 224.07568018 656.14857037 224.08460593 663.24340606 C224.08982409 667.00069134 224.10210125 670.75765644 224.13117218 674.51483917 C224.1633503 678.70754749 224.16421264 682.89969794 224.16235352 687.0925293 C224.17673462 688.34049789 224.19111572 689.58846649 224.20593262 690.87425232 C224.20043396 692.01566177 224.1949353 693.15707123 224.18927002 694.33306885 C224.19295719 695.3249181 224.19664436 696.31676735 224.20044327 697.33867264 C223.56690677 700.68601875 222.34486579 701.84682312 219.70825195 703.93920898 C216.70662648 704.93975081 214.73676659 705.0626077 211.602005 705.0594635 C210.54611176 705.06083817 209.49021851 705.06221283 208.40232849 705.06362915 C207.244272 705.06003387 206.08621552 705.0564386 204.89306641 705.05273438 C203.67343201 705.0528804 202.45379761 705.05302643 201.19720459 705.05317688 C197.85242344 705.05259916 194.50770384 705.04758024 191.16293359 705.04060292 C187.66755876 705.03435609 184.17218314 705.03376453 180.67680359 705.03257751 C174.05765129 705.02946813 167.43851548 705.02126001 160.81937045 705.01122802 C153.28377544 705.00005472 145.74817965 704.99455337 138.21257842 704.98953259 C122.7111267 704.97907709 107.20969146 704.96148522 91.70825195 704.93920898 C91.71935501 705.7299028 91.73045807 706.52059662 91.74189758 707.33525085 C91.84217326 714.79472346 91.91825343 722.25386831 91.96731281 729.71383953 C91.99338315 733.54893991 92.0287323 737.38348241 92.08544922 741.21826172 C92.1398636 744.9206215 92.16969178 748.62244547 92.18263817 752.32517433 C92.19186143 753.73620856 92.20987311 755.14721416 92.23690224 756.55801964 C92.273306 758.53724831 92.27529528 760.51701868 92.27587891 762.49658203 C92.28698196 763.6224321 92.29808502 764.74828217 92.30952454 765.9082489 C91.51795438 769.89848166 89.798995 771.39022748 86.70825195 773.93920898 C84.64575195 774.60327148 84.64575195 774.60327148 82.70825195 774.56420898 C82.06887695 774.57709961 81.42950195 774.58999023 80.77075195 774.60327148 C77.43302156 773.52862344 75.9083465 771.62620375 73.70825195 768.93920898 C73.25254711 766.17708623 73.09948425 764.05227988 73.18823242 761.30664062 C73.19436554 760.1788343 73.19436554 760.1788343 73.20062256 759.02824402 C73.21934817 756.5511272 73.27284135 754.07597336 73.32543945 751.59936523 C73.34239659 749.87212968 73.35669001 748.14486611 73.36843872 746.41758728 C73.40449334 741.87388844 73.46794107 737.33104003 73.53979492 732.78778076 C73.65315624 725.52007844 73.73823972 718.25230603 73.79819107 710.98397636 C73.82503617 708.44993358 73.87164972 705.91678542 73.91989136 703.3830719 C73.93718883 701.82244687 73.95375765 700.26181354 73.96948242 698.70117188 C73.98812347 698.00124115 74.00676453 697.30131042 74.02597046 696.58016968 C74.0479588 691.92046187 72.94413443 688.97680704 70.70825195 684.93920898 C69.57467058 674.26865384 71.15546911 663.14612072 72.20825195 652.50170898 C72.35342776 650.98028598 72.49796199 649.45880161 72.6418457 647.93725586 C72.98996012 644.27050679 73.34661287 640.60465194 73.70825195 636.93920898 C73.04825195 636.93920898 72.38825195 636.93920898 71.70825195 636.93920898 C70.8903418 635.17770508 70.8903418 635.17770508 70.0559082 633.38061523 C65.91981099 624.52945983 61.65079625 615.79034987 57.03491211 607.17944336 C54.34165488 602.1513968 51.71300657 597.09532185 49.14575195 592.00170898 C48.79891357 591.32084229 48.4520752 590.63997559 48.09472656 589.93847656 C45.70825195 585.17592193 45.70825195 585.17592193 45.70825195 582.93920898 C45.04825195 582.93920898 44.38825195 582.93920898 43.70825195 582.93920898 C43.32797852 582.05362305 42.94770508 581.16803711 42.5559082 580.25561523 C36.95948239 568.1953176 28.36905338 559.88991377 18.70825195 550.93920898 C16.027209 558.46140326 14.17914526 566.05826057 12.4152832 573.84155273 C12.10531098 575.19434783 11.79492246 576.54704761 11.48414612 577.8996582 C10.82947927 580.75244466 10.17742912 583.60581066 9.52752686 586.45968628 C8.51603203 590.9006901 7.49784648 595.34014209 6.47827148 599.77929688 C5.30709327 604.87981211 4.13673917 609.98051351 2.9682312 615.0816412 C0.84457272 624.35211187 -1.28398969 633.62137975 -3.45083618 642.88186646 C-3.89319448 644.77586232 -4.33124044 646.67086384 -4.76904297 648.56591797 C-6.26425208 654.94472736 -7.91002899 661.26477053 -9.6784668 667.57202148 C-12.1725811 676.47387139 -14.6238494 685.38064038 -16.84375 694.35546875 C-17.27158001 696.05281815 -17.71527617 697.74623825 -18.17382812 699.43554688 C-21.6210945 711.0069842 -21.6210945 711.0069842 -18.7409668 722.28295898 C-17.63423377 723.86599587 -16.48922639 725.42365317 -15.29174805 726.93920898 C-14.66526367 727.99237305 -14.0387793 729.04553711 -13.39331055 730.13061523 C-12.39405237 731.7352441 -11.3940304 733.33939753 -10.39331055 734.94311523 C-9.29174805 736.93920898 -9.29174805 736.93920898 -9.29174805 738.93920898 C-8.63174805 738.93920898 -7.97174805 738.93920898 -7.29174805 738.93920898 C-5.6003418 741.42358398 -5.6003418 741.42358398 -3.72924805 744.68920898 C-3.10920898 745.75655273 -2.48916992 746.82389648 -1.8503418 747.92358398 C0.9807902 753.40136319 1.68732783 759.03010457 0.17700195 765.06030273 C-2.21052029 771.9244292 -5.82427601 776.44499637 -12.29174805 779.93920898 C-15.7162389 780.52316212 -19.09278476 780.50650841 -22.56054688 780.48852539 C-24.09099388 780.50385818 -24.09099388 780.50385818 -25.65235901 780.51950073 C-29.01807259 780.54725177 -32.38296504 780.54538221 -35.7487793 780.54077148 C-38.09519249 780.54854854 -40.44160289 780.55721853 -42.78800964 780.56674194 C-47.70479459 780.58165815 -52.62129231 780.58109063 -57.53808594 780.57055664 C-63.82631142 780.55897742 -70.11335677 780.59280643 -76.40138721 780.63924599 C-81.24772469 780.66877239 -86.09377978 780.67045701 -90.94019127 780.66422653 C-93.25775169 780.66525068 -95.57532838 780.67568357 -97.89280128 780.69585037 C-101.14089217 780.72064382 -104.38670866 780.70696209 -107.63476562 780.68383789 C-108.58416016 780.69912537 -109.53355469 780.71441284 -110.51171875 780.73016357 C-118.2533531 780.60889925 -123.27441166 777.74443773 -128.84728718 772.46579933 C-135.09176882 765.53684409 -135.82483039 759.12933317 -135.6328125 750.12304688 C-135.28259853 743.82788894 -133.25738994 738.06665352 -131.18847656 732.15664673 C-129.97799584 728.6920363 -128.84149983 725.2036259 -127.7097168 721.71264648 C-127.48951874 721.03581314 -127.26932068 720.3589798 -127.04244995 719.66163635 C-124.89357952 712.92758439 -123.65168353 706.23645392 -122.79174805 699.23999023 C-122.29174805 695.93920898 -122.29174805 695.93920898 -121.35839844 693.73828125 C-120.00305006 690.18161629 -119.37136589 686.58752386 -118.7253418 682.85327148 C-118.57461716 682.008573 -118.42389252 681.16387451 -118.26860046 680.2935791 C-117.93175191 678.40164715 -117.59742326 676.50926535 -117.26519775 674.61651611 C-116.71574904 671.48733029 -116.15955399 668.35940626 -115.60180664 665.23168945 C-114.7100328 660.22583184 -113.82135746 655.21943271 -112.93481445 650.21264648 C-110.0173655 633.73919277 -107.08822369 617.2678202 -104.15087795 600.79790306 C-102.99844 594.33454135 -101.85025141 587.87044312 -100.70526218 581.4057579 C-99.97595126 577.29289803 -99.24312291 573.18067014 -98.50943947 569.06858826 C-98.1658735 567.13886739 -97.8237394 565.20889096 -97.48316002 563.27864075 C-95.89995812 554.31013007 -94.28194316 545.42313879 -91.96383667 536.60955811 C-90.79158299 531.95194826 -89.97431739 527.23261965 -89.13549805 522.50561523 C-88.94709351 521.46582016 -88.75868896 520.42602509 -88.5645752 519.35472107 C-87.96986 516.07105106 -87.3802632 512.78649541 -86.79174805 509.50170898 C-81.94182557 482.47586525 -81.94182557 482.47586525 -79.29174805 471.93920898 C-80.44839966 471.5002832 -80.44839966 471.5002832 -81.62841797 471.05249023 C-96.4127894 464.87257148 -106.56519499 448.01444573 -112.61206055 433.84545898 C-114.42962563 428.94476499 -115.87235716 423.96878974 -117.29174805 418.93920898 C-118.53827148 418.98561523 -119.78479492 419.03202148 -121.0690918 419.07983398 C-149.43761022 419.81737059 -169.67625282 410.55975968 -190.1628418 391.33764648 C-196.69448612 385.06921005 -202.59218154 378.72505797 -207.29174805 370.93920898 C-208.25467773 369.37299805 -208.25467773 369.37299805 -209.23706055 367.77514648 C-217.85161806 353.43606329 -224.01106933 338.0946098 -228.29174805 321.93920898 C-228.61151611 320.74618164 -228.61151611 320.74618164 -228.93774414 319.52905273 C-235.96125527 291.7691959 -234.98797486 258.42140474 -227.29174805 230.93920898 C-227.05649414 230.09583984 -226.82124023 229.2524707 -226.57885742 228.38354492 C-221.95462703 212.38982245 -215.42247136 192.6832957 -203.29174805 180.93920898 C-202.37024294 179.75033761 -201.47384071 178.54156199 -200.60424805 177.31420898 C-193.58197856 167.87529813 -185.89764565 160.71761505 -176.29174805 153.93920898 C-175.44483398 153.29854492 -174.59791992 152.65788086 -173.7253418 151.99780273 C-157.00355793 139.570538 -135.5416133 136.18246927 -115.22924805 138.75170898 C-109.10666121 139.69836034 -103.21244561 141.12675055 -97.29174805 142.93920898 C-97.49670898 142.3475293 -97.70166992 141.75584961 -97.9128418 141.14624023 C-98.18225586 140.35604492 -98.45166992 139.56584961 -98.72924805 138.75170898 C-98.99608398 137.9744043 -99.26291992 137.19709961 -99.5378418 136.39624023 C-101.08382728 131.3577694 -101.34195272 126.83193723 -101.41674805 121.56420898 C-101.56590792 117.90649205 -101.70916518 114.82614913 -103.7722168 111.68530273 C-104.98421707 110.57150291 -106.23104975 109.49435925 -107.51049805 108.45874023 C-113.37994589 103.45168933 -114.39045189 95.17690554 -115.29174805 87.93920898 C-115.70877785 82.44213808 -115.85103733 76.93346512 -115.97973633 71.42333984 C-116.04172023 68.87785127 -116.12494663 66.33363824 -116.2097168 63.78881836 C-116.44458993 55.61912707 -116.62226702 47.86359608 -114.29174805 39.93920898 C-114.04295898 39.03428711 -113.79416992 38.12936523 -113.5378418 37.19702148 C-110.74493174 29.83021525 -106.29360949 23.97160469 -101.29174805 17.93920898 C-100.69749023 17.21733398 -100.10323242 16.49545898 -99.4909668 15.75170898 C-75.18036566 -10.98456188 -30.63644825 -16.95521177 0 0 Z M35.70825195 64.93920898 C34.63575195 65.51670898 33.56325195 66.09420898 32.45825195 66.68920898 C21.83125762 72.37661891 8.04984865 72.89959868 -3.8503418 73.36889648 C-5.46950913 73.44253025 -7.08864911 73.51676754 -8.70776367 73.59155273 C-11.21971241 73.70482949 -13.73158729 73.81430118 -16.24414062 73.91333008 C-30.82250636 73.78093992 -30.82250636 73.78093992 -43.29174805 79.93920898 C-43.95776935 82.29209646 -44.54858492 84.623309 -45.10424805 87.00170898 C-47.52166295 96.56547147 -50.79345263 104.33593728 -59.29174805 109.93920898 C-66.96314381 114.47533865 -74.57480157 117.17727299 -83.29174805 118.93920898 C-82.94692073 129.28402863 -81.69752861 135.92050741 -74.16674805 143.25170898 C-65.51679492 151.29779746 -53.43183815 150.3725709 -42.40893555 150.30249023 C-40.78329468 150.30197045 -39.15765319 150.30249273 -37.53201294 150.30400085 C-34.14144384 150.30391162 -30.75111492 150.29358053 -27.3605957 150.27539062 C-23.03225628 150.25266888 -18.70426582 150.25217127 -14.3758831 150.25890827 C-11.02484071 150.26226158 -7.67387674 150.25559318 -4.32284927 150.24577904 C-2.72738176 150.24195295 -1.13190548 150.24076797 0.46356583 150.24236488 C2.69780135 150.242739 4.93160186 150.23002107 7.16577148 150.21386719 C8.43244659 150.2092598 9.6991217 150.2046524 11.00418091 150.1999054 C19.34188001 149.61308937 26.67476888 147.26717202 32.47387695 141.04467773 C37.06664392 135.21453909 38.96539438 129.96767259 38.93530273 122.47485352 C38.93515167 121.21399933 38.93500061 119.95314514 38.93484497 118.65408325 C38.92463412 117.29339436 38.91420217 115.93270711 38.90356445 114.57202148 C38.8998302 113.16812339 38.89698517 111.76422268 38.89498901 110.36032104 C38.88738499 106.68107802 38.86776466 103.0019951 38.84558105 99.32281494 C38.82505266 95.56215581 38.8159724 91.8014706 38.8059082 88.04077148 C38.78451538 80.67351132 38.75041893 73.30638266 38.70825195 65.93920898 C37.71825195 65.60920898 36.72825195 65.27920898 35.70825195 64.93920898 Z M-137.05737305 168.95092773 C-137.7947168 169.60706055 -138.53206055 170.26319336 -139.29174805 170.93920898 C-139.9053418 171.4819043 -140.51893555 172.02459961 -141.15112305 172.58374023 C-158.2267768 188.68028541 -166.64941426 210.98805626 -171.54174805 233.43920898 C-171.69289062 234.12474854 -171.8440332 234.81028809 -171.99975586 235.51660156 C-175.06327718 250.68034054 -175.66226408 265.95784663 -175.60424805 281.37670898 C-175.60375458 282.28531677 -175.60326111 283.19392456 -175.60275269 284.13006592 C-175.57582423 300.40590887 -174.3544178 316.20505399 -171.93579102 332.30932617 C-171.46778575 335.62217246 -171.2172681 337.71576914 -172.29174805 340.93920898 C-175.75004539 343.24474054 -177.79695573 343.94759529 -181.97924805 343.87670898 C-185.78064644 342.80084151 -186.356436 342.26035136 -188.29174805 338.93920898 C-188.98364258 335.98168945 -188.98364258 335.98168945 -189.42456055 332.55639648 C-189.67399414 330.68081055 -189.67399414 330.68081055 -189.9284668 328.76733398 C-190.08959961 327.46280273 -190.25073242 326.15827148 -190.41674805 324.81420898 C-190.58561523 323.53288086 -190.75448242 322.25155273 -190.9284668 320.93139648 C-191.83770195 313.9438885 -192.63196129 306.95449271 -193.29174805 299.93920898 C-203.19174805 300.43420898 -203.19174805 300.43420898 -213.29174805 300.93920898 C-212.71055182 314.30672216 -209.30678171 327.96697851 -203.29174805 339.93920898 C-202.69384189 341.25634063 -202.10058388 342.57558651 -201.51049805 343.89624023 C-197.79151391 352.15435776 -193.98928803 359.83417395 -188.29174805 366.93920898 C-187.88021484 367.45467285 -187.46868164 367.97013672 -187.04467773 368.5012207 C-174.57949914 383.9995628 -159.52356106 396.5728773 -139.29174805 399.93920898 C-135.61020109 400.16098662 -131.95080416 400.13057024 -128.2644043 400.06420898 C-127.30087036 400.05518555 -126.33733643 400.04616211 -125.34460449 400.03686523 C-122.99338336 400.01353529 -120.64270484 399.98080433 -118.29174805 399.93920898 C-118.28935969 399.16451484 -118.28697134 398.38982069 -118.28451061 397.59165096 C-118.22520534 378.68441956 -118.14955687 359.77731698 -118.05603313 340.87022305 C-118.01119285 331.72664485 -117.97175149 322.58310458 -117.9453125 313.43945312 C-117.92223665 305.46375575 -117.88873286 297.48817959 -117.84304649 289.51257855 C-117.81924268 285.29507984 -117.80043025 281.07770023 -117.79413414 276.86013603 C-117.78802452 272.87836653 -117.76781696 268.89690124 -117.73747253 264.91524506 C-117.72878532 263.46542803 -117.72495001 262.01557109 -117.72673988 260.56572914 C-117.74358928 240.59306229 -113.00924907 218.31581944 -98.79174805 203.29858398 C-97.55424805 202.13069336 -97.55424805 202.13069336 -96.29174805 200.93920898 C-95.30174805 199.86219727 -95.30174805 199.86219727 -94.29174805 198.76342773 C-89.04892852 193.16221234 -83.59593122 189.37847293 -77.0144043 185.56811523 C-74.26112445 184.07109505 -74.26112445 184.07109505 -72.29174805 181.93920898 C-90.52201422 161.81870784 -113.8492489 149.32749792 -137.05737305 168.95092773 Z M-178.3112793 177.74780273 C-205.36779809 206.27520524 -215.57843988 243.52250334 -215.29174805 281.93920898 C-208.36174805 281.93920898 -201.43174805 281.93920898 -194.29174805 281.93920898 C-194.1937793 279.99143555 -194.09581055 278.04366211 -193.99487305 276.03686523 C-192.41744549 247.08308143 -190.38961136 215.4658447 -175.29174805 189.93920898 C-174.49502875 188.53751622 -173.69955956 187.13511248 -172.9050293 185.73217773 C-168.75570845 178.47928073 -164.55694421 171.45142529 -159.29174805 164.93920898 C-165.46334112 164.93920898 -173.99928388 173.57842479 -178.3112793 177.74780273 Z M-54.29174805 167.93920898 C-54.29174805 170.24920898 -54.29174805 172.55920898 -54.29174805 174.93920898 C-53.19842163 174.91564331 -53.19842163 174.91564331 -52.08300781 174.89160156 C-37.82251053 174.62541759 -24.21633959 174.6397289 -10.29174805 177.93920898 C-9.96174805 174.63920898 -9.63174805 171.33920898 -9.29174805 167.93920898 C-24.14174805 167.93920898 -38.99174805 167.93920898 -54.29174805 167.93920898 Z M-62.29174805 225.93920898 C-68.25238625 233.62529509 -68.60904149 240.59585886 -68.62768555 249.99389648 C-68.63434235 251.16824249 -68.64099915 252.3425885 -68.64785767 253.55252075 C-68.65797153 256.03882283 -68.66267508 258.52515198 -68.66235352 261.01147461 C-68.66669292 264.76650488 -68.70293455 268.5203266 -68.7409668 272.27514648 C-68.8227191 289.6655973 -67.4477249 304.28918964 -59.29174805 319.93920898 C-58.81608398 320.87506836 -58.34041992 321.81092773 -57.8503418 322.77514648 C-49.2360499 339.19403183 -36.78148077 353.11735437 -19.97924805 361.25170898 C-19.31666992 361.5773584 -18.6540918 361.90300781 -17.97143555 362.23852539 C-7.00271056 367.27983948 4.16210602 368.38129432 16.1027832 368.23217773 C17.26918335 368.22915649 18.4355835 368.22613525 19.6373291 368.22302246 C23.93189535 368.20750448 28.22633397 368.16562288 32.52075195 368.12670898 C42.15262695 368.06483398 51.78450195 368.00295898 61.70825195 367.93920898 C61.70825195 346.81920898 61.70825195 325.69920898 61.70825195 303.93920898 C44.86540264 303.76883794 44.86540264 303.76883794 28.0222168 303.64135742 C25.90451896 303.61198224 23.78684054 303.58115548 21.66918945 303.54858398 C20.57711182 303.54745605 19.48503418 303.54632813 18.35986328 303.54516602 C12.17354009 303.42895101 8.40346389 303.10185549 3.70825195 298.93920898 C-5.90601621 287.95147394 -3.73573639 270.57930255 -3.72753906 256.97875977 C-3.74607946 238.30886925 -3.74607946 238.30886925 -13.29174805 222.69702148 C-22.00035204 215.04297501 -31.22125282 214.24439408 -42.34741211 214.7644043 C-50.5504161 215.50189185 -56.79441158 220.09828898 -62.29174805 225.93920898 Z M80.70825195 304.93920898 C80.70825195 325.39920898 80.70825195 345.85920898 80.70825195 366.93920898 C88.23022192 365.86464185 92.72385781 364.60792281 97.5480957 358.67749023 C100.58312479 354.64694762 100.58312479 354.64694762 101.70825195 349.93920898 C102.36825195 349.93920898 103.02825195 349.93920898 103.70825195 349.93920898 C106.87348588 339.65219873 106.85859716 330.55464637 102.24731445 320.70092773 C97.82474835 312.76500329 92.29152045 308.06039753 83.70825195 304.93920898 C82.71825195 304.93920898 81.72825195 304.93920898 80.70825195 304.93920898 Z M-99.29174805 416.93920898 C-97.04577483 424.73783477 -97.04577483 424.73783477 -94.10424805 432.06420898 C-93.58797852 433.18182617 -93.58797852 433.18182617 -93.0612793 434.32202148 C-92.80733398 434.85569336 -92.55338867 435.38936523 -92.29174805 435.93920898 C-91.63174805 435.93920898 -90.97174805 435.93920898 -90.29174805 435.93920898 C-90.04424805 436.66366211 -89.79674805 437.38811523 -89.54174805 438.13452148 C-85.72571955 446.69673543 -77.28004559 453.37878203 -69.29174805 457.93920898 C-68.63174805 457.93920898 -67.97174805 457.93920898 -67.29174805 457.93920898 C-67.29174805 458.59920898 -67.29174805 459.25920898 -67.29174805 459.93920898 C-60.62462974 463.39623329 -54.10175713 465.02336407 -46.76489258 466.36791992 C-40.24404229 467.65213823 -35.58893744 470.24226668 -31.04174805 475.18920898 C-30.13424805 476.09670898 -29.22674805 477.00420898 -28.29174805 477.93920898 C-27.63174805 477.93920898 -26.97174805 477.93920898 -26.29174805 477.93920898 C-26.29174805 478.59920898 -26.29174805 479.25920898 -26.29174805 479.93920898 C-24.88307278 481.10737872 -23.47055263 482.27115035 -22.04150391 483.41430664 C-20.23947358 484.98476588 -18.76802324 486.63175167 -17.2331543 488.46264648 C-12.68937797 493.72638948 -7.74096631 498.5599938 -2.79174805 503.43920898 C2.76394493 508.91632073 8.2529989 514.37721914 13.3203125 520.31420898 C15.02191951 522.30645107 16.74879319 524.19746787 18.70825195 525.93920898 C19.36825195 525.93920898 20.02825195 525.93920898 20.70825195 525.93920898 C20.70825195 526.59920898 20.70825195 527.25920898 20.70825195 527.93920898 C22.25904266 529.50784981 22.25904266 529.50784981 24.27075195 531.12670898 C29.63897534 535.70104018 34.53666092 540.53767141 39.14575195 545.87670898 C42.78121679 550.07970114 46.49857182 554.30049696 50.70825195 557.93920898 C51.36825195 557.93920898 52.02825195 557.93920898 52.70825195 557.93920898 C53.09303711 559.19797852 53.09303711 559.19797852 53.4855957 560.48217773 C54.81100532 564.22974167 56.46874079 567.71858689 58.27075195 571.25170898 C58.79040527 572.28026001 58.79040527 572.28026001 59.32055664 573.32958984 C64.23432004 583.00917774 69.23376895 592.6571933 74.65014648 602.06591797 C76.76789948 605.81523009 78.76375887 609.62983381 80.77075195 613.43920898 C81.42140625 614.66317383 81.42140625 614.66317383 82.08520508 615.91186523 C82.50866211 616.71495117 82.93211914 617.51803711 83.3684082 618.34545898 C83.93507202 619.41763672 83.93507202 619.41763672 84.51318359 620.51147461 C86.03229555 623.59749081 87.35330715 626.77767112 88.70825195 629.93920898 C118.40825195 630.92920898 118.40825195 630.92920898 148.70825195 631.93920898 C146.46299782 624.19039258 146.46299782 624.19039258 143.62231445 616.82592773 C143.25130615 615.97667725 142.88029785 615.12742676 142.49804688 614.25244141 C142.11366455 613.38594971 141.72928223 612.51945801 141.33325195 611.62670898 C138.32794295 604.7493732 135.44401057 597.87997115 132.8762207 590.82592773 C131.71300574 587.8215618 131.71300574 587.8215618 129.9855957 584.61499023 C126.88800103 578.51967694 124.50172722 572.10410799 121.99523926 565.74987793 C120.44210104 561.81474831 118.87572701 557.88489406 117.30981445 553.95483398 C116.99939209 553.1752533 116.68896973 552.39567261 116.36914062 551.59246826 C112.65310318 542.27259713 108.81438415 533.00728371 104.89379883 523.77172852 C103.63974206 520.77552451 102.43065411 517.76333363 101.22387695 514.74780273 C96.69891845 503.62735046 92.60962439 495.18629251 83.70825195 486.93920898 C82.60752337 485.6834124 81.52310205 484.41306925 80.45825195 483.12670898 C77.09385369 479.23487536 73.43400595 475.67046413 69.77075195 472.06420898 C65.91452008 468.26336554 62.22114971 464.52473749 58.95825195 460.18920898 C54.99290826 454.9825403 50.36293015 450.5196104 45.70825195 445.93920898 C27.25531306 427.7686367 27.25531306 427.7686367 25.70825195 416.93920898 C-15.54174805 416.93920898 -56.79174805 416.93920898 -99.29174805 416.93920898 Z M-63.29174805 479.93920898 C-63.46976707 480.92494148 -63.46976707 480.92494148 -63.65138245 481.93058777 C-64.90878418 488.87238568 -66.20041159 495.80722642 -67.5065918 502.73999023 C-73.00293215 531.99815339 -78.36009213 561.27543881 -83.49853516 590.59863281 C-90.02541177 627.7793623 -90.02541177 627.7793623 -93.7800293 644.83374023 C-96.03792292 655.13806125 -97.87450715 665.52977199 -99.79052734 675.90185547 C-100.48475471 679.65649103 -101.18399387 683.41017147 -101.88354492 687.16381836 C-102.32590303 689.55113243 -102.76797102 691.93850028 -103.2097168 694.32592773 C-103.41904343 695.4477092 -103.62837006 696.56949066 -103.84403992 697.7252655 C-104.03456436 698.76097183 -104.22508881 699.79667816 -104.42138672 700.86376953 C-104.58998703 701.77418503 -104.75858734 702.68460052 -104.93229675 703.62260437 C-105.36841216 706.04257572 -105.36841216 706.04257572 -105.29174805 708.93920898 C-83.51174805 708.93920898 -61.73174805 708.93920898 -39.29174805 708.93920898 C-37.3635068 703.79723232 -35.75575693 699.27798023 -34.48706055 694.03295898 C-34.3269046 693.37541626 -34.16674866 692.71787354 -34.0017395 692.04040527 C-33.46805928 689.84126105 -32.94219817 687.64033307 -32.41674805 685.43920898 C-32.03376346 683.85063032 -31.65062024 682.26208989 -31.26733398 680.67358398 C-26.76053342 661.92790626 -22.43420159 643.13896138 -18.09634399 624.3536377 C-16.83185251 618.88129929 -15.56278588 613.41003019 -14.29174805 607.93920898 C-14.06318115 606.95355957 -13.83461426 605.96791016 -13.59912109 604.95239258 C-11.37093893 595.36771123 -9.04824413 585.85990339 -6.27416992 576.41577148 C-4.52283219 570.21819464 -3.04643574 563.95459914 -1.57202148 557.6862793 C-1.0353332 555.41202561 -0.48790362 553.14051585 0.05981445 550.86889648 C0.40682097 549.40290491 0.75319872 547.93676433 1.09887695 546.47045898 C1.26131897 545.80163696 1.42376099 545.13281494 1.59112549 544.44372559 C2.4965125 540.53908155 2.98738552 536.94581498 2.70825195 532.93920898 C1.42191468 531.14386427 1.42191468 531.14386427 -0.54174805 529.81420898 C-4.38264207 526.73740045 -7.88910871 523.48740652 -11.35424805 520.00170898 C-11.87736572 519.47681885 -12.4004834 518.95192871 -12.93945312 518.41113281 C-15.63476818 515.68435328 -18.24205698 512.92199302 -20.72924805 510.00170898 C-23.95214109 506.22177269 -27.4121071 502.70555972 -30.91674805 499.18920898 C-31.4677417 498.63370361 -32.01873535 498.07819824 -32.58642578 497.50585938 C-34.96204322 495.13883756 -37.29745573 492.93473039 -39.94018555 490.86108398 C-42.29174805 488.93920898 -42.29174805 488.93920898 -44.12768555 486.33374023 C-46.96828053 483.19062702 -49.92452983 482.51004462 -53.91674805 481.62670898 C-54.93768555 481.374375 -54.93768555 481.374375 -55.97924805 481.11694336 C-59.59495776 480.23084183 -59.59495776 480.23084183 -63.29174805 479.93920898 Z " fill="#FFFFFF" transform="translate(331.291748046875,38.060791015625)"/>
</svg>
