<?xml version="1.0" encoding="UTF-8"?>
<svg version="1.1" xmlns="http://www.w3.org/2000/svg" width="900" height="837">
<path d="M0 0 C12.21 0 24.42 0 37 0 C37.00364563 4.45697891 37.00729126 8.91395782 37.01104736 13.5059967 C37.04631392 54.3645756 37.10132929 95.22309011 37.17792095 136.08161319 C37.18793857 141.43518651 37.19778267 146.78876014 37.20751953 152.14233398 C37.2094609 153.20814728 37.21140228 154.27396059 37.21340248 155.37207126 C37.24443506 172.63619809 37.26140665 189.90031162 37.27319422 207.16446108 C37.28559926 224.87521722 37.31308602 242.5859035 37.35461307 260.29661554 C37.37976699 271.22765823 37.3931159 282.15858508 37.39142957 293.08965712 C37.39139985 300.58252807 37.40600162 308.0752809 37.43216428 315.56810582 C37.44683166 319.89299093 37.45499488 324.2176338 37.44580269 328.5425396 C37.43752872 332.5023806 37.44763457 336.46173445 37.47233662 340.42150312 C37.4780304 341.85363974 37.47698904 343.28582238 37.46851245 344.71794523 C37.34765604 355.08488108 37.34765604 355.08488108 42 364 C48.08632768 368.9548744 54.1586891 368.58087149 61.76904297 368.54931641 C63.04307983 368.55953827 64.3171167 368.56976013 65.62976074 368.58029175 C69.10929625 368.60696778 72.58839591 368.60824094 76.06801367 368.60316515 C78.98035648 368.60101837 81.89261242 368.61081123 84.80493653 368.62037599 C91.68008301 368.64253079 98.55501092 368.64346162 105.43017578 368.63134766 C112.50535704 368.61927227 119.5797424 368.64388588 126.6547879 368.68648779 C132.74509182 368.72180164 138.83514336 368.73370973 144.92554581 368.72721231 C148.5560924 368.72359879 152.18607132 368.72873421 155.81652451 368.75664139 C159.86892519 368.78662912 163.9197224 368.76778921 167.97216797 368.74462891 C169.16311066 368.75991638 170.35405334 368.77520386 171.58108521 368.79095459 C178.34425908 368.70570347 182.74259806 367.70818845 188.29394722 363.77460289 C192.33759381 359.56848042 192.28766592 354.8141876 192.2515564 349.26202393 C192.25452654 348.48978792 192.25749667 347.71755191 192.26055682 346.92191482 C192.26818726 344.33751589 192.26170646 341.75334488 192.25537109 339.16894531 C192.25812166 337.31403957 192.26180196 335.45913501 192.26634216 333.60423279 C192.2744542 329.60898498 192.27662248 325.61379314 192.27439499 321.6185379 C192.27155819 315.28729195 192.28593055 308.95615729 192.30337524 302.62493896 C192.35035789 284.62058199 192.37431856 266.61623195 192.38085938 248.61181641 C192.38462422 238.66830026 192.40277242 228.72490957 192.43595374 218.78144717 C192.45605183 212.50303033 192.45859424 206.2249397 192.44767356 199.94650412 C192.44504404 196.01560472 192.45917992 192.08489035 192.47775459 188.15403938 C192.48302375 186.34866833 192.48167176 184.54326205 192.47271919 182.7379055 C192.38935504 164.43046895 194.58005471 145.7394678 208 132 C210.58161659 129.86922706 213.26132764 127.922548 216 126 C216.886875 125.319375 217.77375 124.63875 218.6875 123.9375 C228.35657628 118.28200255 238.04173647 115.84793258 249.1574707 115.85473633 C249.95343658 115.85137772 250.74940247 115.8480191 251.56948853 115.84455872 C254.18826886 115.83509752 256.80698491 115.83310799 259.42578125 115.83203125 C261.25652594 115.82881516 263.08727037 115.82545082 264.91801453 115.82194519 C268.75190832 115.81596589 272.58577961 115.81410404 276.41967773 115.81469727 C281.31521909 115.81479878 286.21061507 115.80115198 291.10612202 115.78392506 C294.88696445 115.77276732 298.66777217 115.77077922 302.44862938 115.77130699 C304.25261117 115.77013236 306.05659401 115.76573979 307.86055946 115.75797462 C310.39192299 115.74809889 312.92297642 115.75108248 315.4543457 115.75708008 C316.18867325 115.75146057 316.92300079 115.74584106 317.67958069 115.74005127 C332.80857707 115.83043809 345.04106947 122.39479972 355.8125 132.6875 C356.534375 133.450625 357.25625 134.21375 358 135 C358.66 135.5775 359.32 136.155 360 136.75 C371.33894715 149.50631555 371.59116812 167.20017183 371.48242188 183.31445312 C371.48461349 185.19543745 371.48861895 187.07642038 371.49427795 188.95739746 C371.50277439 192.97328444 371.4991579 196.98890272 371.4858551 201.004776 C371.46536027 207.3596761 371.47556165 213.71431073 371.4901123 220.06921387 C371.51674707 233.54616716 371.51014886 247.02303173 371.5 260.5 C371.4890359 275.08128398 371.48382922 289.66242965 371.51729441 304.24369001 C371.53064333 310.55727171 371.52474548 316.87044928 371.50392914 323.18400669 C371.49493552 327.10897916 371.502423 331.03379615 371.51434135 334.95875549 C371.51646911 336.77437874 371.5117687 338.59002517 371.4996357 340.40560913 C371.48397336 342.88967878 371.49302564 345.37251956 371.50793457 347.85656738 C371.49744567 348.56941281 371.48695678 349.28225823 371.47615004 350.01670504 C371.54712368 355.35010934 372.95760772 359.65867288 376 364 C382.11825858 368.97494105 389.26187288 368.57504541 396.80664062 368.53344727 C398.07267624 368.54206284 399.33871185 368.55067841 400.64311218 368.55955505 C404.09568347 368.58194411 407.5477941 368.57913457 411.00041008 368.57023358 C413.89052543 368.56510267 416.78055581 368.57243309 419.6706624 368.57970566 C426.4916183 368.59667079 433.31235029 368.59317256 440.13330078 368.57641602 C447.1544785 368.55948996 454.1750347 368.57534294 461.19614458 368.6076389 C467.24058883 368.63438208 473.28484016 368.64159836 479.3293376 368.63312382 C482.93237074 368.62820924 486.53502997 368.63032992 490.13801575 368.65091133 C494.15685514 368.67277234 498.17452469 368.65381692 502.19335938 368.63110352 C503.37697556 368.64279572 504.56059174 368.65448792 505.78007507 368.66653442 C511.83306113 368.59701012 516.25900703 368.03430623 521.40726471 364.75515652 C527.36858994 358.18591749 526.42989423 349.97914863 526.39872742 341.64308167 C526.40416962 340.16860611 526.41092233 338.6941349 526.41886932 337.21967071 C526.4368811 333.17647486 526.43633923 329.13346281 526.43273985 325.09023631 C526.43211579 320.72696191 526.44873809 316.36374907 526.46325684 312.00050354 C526.48604589 304.44371141 526.49792848 296.88696539 526.50238609 289.33014107 C526.50884682 278.40427808 526.53178288 267.47849844 526.55872939 256.55266904 C526.6020022 238.8258959 526.63196614 221.09912627 526.65356445 203.37231445 C526.67457265 186.15322139 526.70184637 168.93415703 526.73754883 151.71508789 C526.74084707 150.12279085 526.74084707 150.12279085 526.74421193 148.49832619 C526.75528155 143.17289105 526.76647436 137.84745617 526.77772844 132.52202141 C526.87092055 88.34803817 526.94169457 44.17404191 527 0 C538.88 0 550.76 0 563 0 C563.09044253 46.18419267 563.16204767 92.36836408 563.20426132 138.55262776 C563.20926409 144.00619535 563.21444139 149.45976276 563.21972656 154.91333008 C563.22130043 156.54187762 563.22130043 156.54187762 563.22290608 158.20332512 C563.24030711 175.77840714 563.27184316 193.35343679 563.30861118 210.92848776 C563.34602897 228.96466553 563.36823763 247.00081588 563.37635398 265.03703088 C563.38184 276.16463825 563.3991617 287.29209755 563.43166587 298.41965934 C563.45282406 306.05221893 563.45919707 313.68470207 563.45400551 321.31728885 C563.45144578 325.7196574 563.45534532 330.12176735 563.4768219 334.52408981 C563.49636346 338.55934114 563.49722107 342.59416128 563.48359558 346.62943294 C563.4819129 348.08454026 563.48692267 349.53967507 563.49953273 350.99472872 C563.61874504 365.60733207 559.43416798 378.40152142 549.58984375 389.50390625 C535.07055236 403.16702321 519.28951718 406.31692487 499.9362793 406.2746582 C498.0846669 406.2823246 498.0846669 406.2823246 496.19564819 406.29014587 C492.85032631 406.301561 489.50525443 406.30413218 486.15993094 406.30158257 C483.34738624 406.300502 480.53486361 406.30542371 477.72232372 406.310188 C471.07601429 406.32122959 464.4297614 406.32175114 457.78344727 406.31567383 C450.9720792 406.30964047 444.16091804 406.32194113 437.34958524 406.3432439 C431.46036123 406.36097197 425.57120241 406.36684371 419.68195277 406.36360615 C416.18277996 406.36181065 412.68375471 406.36425272 409.18460655 406.37832069 C366.26358706 406.53587829 366.26358706 406.53587829 349.3515625 390.40234375 C335.70523886 376.46133206 333.24173335 363.22241104 333.41992188 344.46948242 C333.41965468 342.54115647 333.41711285 340.61282971 333.41249084 338.68450928 C333.4071201 334.5599338 333.41701049 330.43578925 333.4389801 326.31126976 C333.47305157 319.78401827 333.46872152 313.25712518 333.4588623 306.72981262 C333.44325838 292.88229981 333.46943605 279.03497631 333.5 265.1875 C333.53301216 250.21724572 333.55876822 235.24719375 333.53612375 220.27690393 C333.52774707 213.79289425 333.54348 207.30953363 333.57791901 200.82561624 C333.59439408 196.79132732 333.5901975 192.75724885 333.58047295 188.72294617 C333.58021359 186.85774119 333.58849442 184.99251171 333.60611153 183.12738991 C334.11664548 169.5796267 334.11664548 169.5796267 328 158 C323.5553017 154.7773573 319.31334423 154.56721805 313.97851562 154.61181641 C312.8065992 154.60393097 312.8065992 154.60393097 311.61100769 154.59588623 C309.04254845 154.58274156 306.47471495 154.59140444 303.90625 154.6015625 C302.11315798 154.59954017 300.32006676 154.5966274 298.52697754 154.59286499 C294.7745783 154.58844914 291.02239375 154.59484885 287.27001953 154.60888672 C282.46823283 154.62597819 277.66694923 154.61613304 272.86518097 154.59816933 C269.16420728 154.5873115 265.46335221 154.590787 261.76237488 154.5985527 C259.99220215 154.60054918 258.22201853 154.59811488 256.45185852 154.59111404 C253.97477832 154.58346656 251.49850474 154.59514936 249.02148438 154.61181641 C247.93186653 154.60270737 247.93186653 154.60270737 246.82023621 154.59341431 C242.13082401 154.65165625 238.86670597 155.30852914 235 158 C231.48918986 163.09927564 230.41853886 166.94000112 230.50793457 173.15725708 C230.50091609 174.34690907 230.50091609 174.34690907 230.49375582 175.56059444 C230.48287086 178.20365568 230.50027762 180.84575413 230.51757812 183.48876953 C230.51539098 185.38987 230.51139229 187.29096911 230.50572205 189.19206238 C230.49716723 193.28012249 230.50092695 197.36791985 230.5141449 201.45596695 C230.53451655 207.92913618 230.52448777 214.40204182 230.5098877 220.87521362 C230.48087126 235.79190899 230.49156424 250.70852666 230.50258636 265.62523651 C230.51227485 279.28358346 230.51345805 292.94179215 230.48270559 306.60011566 C230.46937981 313.02519838 230.47522504 319.44988339 230.49607086 325.87494206 C230.50510176 329.88647333 230.49754199 333.89785375 230.48565865 337.90937233 C230.48354051 339.75836392 230.4881743 341.60737863 230.5003643 343.45633125 C230.60071219 359.59770276 227.91806799 373.77590935 218 387 C217.34 387 216.68 387 216 387 C215.74863281 387.59039063 215.49726563 388.18078125 215.23828125 388.7890625 C210.96163652 396.42496446 200.11856968 401.63093782 192 404 C183.29824627 405.74036761 174.79072516 406.29399595 165.9362793 406.2746582 C164.0846669 406.2823246 164.0846669 406.2823246 162.19564819 406.29014587 C158.85032631 406.301561 155.50525443 406.30413218 152.15993094 406.30158257 C149.34738624 406.300502 146.53486361 406.30542371 143.72232372 406.310188 C137.07601429 406.32122959 130.4297614 406.32175114 123.78344727 406.31567383 C116.9720792 406.30964047 110.16091804 406.32194113 103.34958524 406.3432439 C97.46036123 406.36097197 91.57120241 406.36684371 85.68195277 406.36360615 C82.18277996 406.36181065 78.68375471 406.36425272 75.18460655 406.37832069 C51.09439523 406.46677548 31.63422688 406.27496197 13.59765625 388.65625 C1.17003243 375.94830384 -0.15741826 361.43224252 -0.12025452 344.40893555 C-0.12069097 342.92122759 -0.12156723 341.4335197 -0.12284368 339.94581223 C-0.12507415 335.87071213 -0.12108721 331.79563845 -0.11606562 327.72054172 C-0.11174049 323.32118657 -0.11320901 318.92183287 -0.1139679 314.5224762 C-0.11449182 306.9045883 -0.11135872 299.28670898 -0.10573006 291.66882324 C-0.0975973 280.65468747 -0.09499801 269.64055584 -0.09374207 258.6264174 C-0.09155434 240.75598816 -0.08490182 222.88556348 -0.07543945 205.01513672 C-0.06625811 187.65738956 -0.05918081 170.29964363 -0.05493164 152.94189453 C-0.05466892 151.87166491 -0.05440619 150.80143528 -0.05413551 149.69877446 C-0.05283046 144.32965796 -0.05156675 138.96054145 -0.05032361 133.59142494 C-0.0399597 89.06094664 -0.02207343 44.53047391 0 0 Z " fill="#FFFFFF" transform="translate(170,380)"/>
<path d="M0 0 C1.03195514 0.96698944 2.03592745 1.96531932 3 3 C4.11181641 3.6496875 4.11181641 3.6496875 5.24609375 4.3125 C8.85233234 6.52228024 11.89076256 9.21505981 15.0625 12 C16.28156569 13.0636316 17.50159161 14.12616382 18.72265625 15.1875 C19.28871582 15.68121094 19.85477539 16.17492187 20.43798828 16.68359375 C21.72176522 17.76551392 23.0705451 18.76983019 24.43359375 19.75 C25.20896484 20.36875 25.20896484 20.36875 26 21 C26 21.66 26 22.32 26 23 C26.78375 23.2475 27.5675 23.495 28.375 23.75 C31.43941457 25.20924503 31.61725761 26.05014956 33 29 C34.32710361 29.67898324 35.66136469 30.34404441 37 31 C38.15881007 31.91716247 39.28170665 32.88064723 40.375 33.875 C50.55671651 42.97597565 61.01520354 51.74088469 71.63720703 60.32275391 C73.32518801 61.68884756 75.00670757 63.06257704 76.6875 64.4375 C77.70199219 65.26121094 78.71648437 66.08492188 79.76171875 66.93359375 C80.86966797 67.95646484 80.86966797 67.95646484 82 69 C82 69.66 82 70.32 82 71 C82.7425 71.2475 83.485 71.495 84.25 71.75 C87.29875486 73.13579766 88.70926423 74.57451507 91 77 C92.07305812 77.94924372 93.157546 78.88564423 94.25 79.8125 C96.6833224 81.87775682 99.10194223 83.9563797 101.5 86.0625 C112.18783708 95.42213985 122.86674507 104.76802577 134.0078125 113.58984375 C135.37288774 114.68507853 136.69388286 115.83508471 138 117 C138 117.66 138 118.32 138 119 C138.804375 119.268125 139.60875 119.53625 140.4375 119.8125 C141.283125 120.204375 142.12875 120.59625 143 121 C143.33 121.99 143.66 122.98 144 124 C145.30932233 124.71266911 146.64663814 125.37499289 148 126 C149.15881007 126.91716247 150.28170665 127.88064723 151.375 128.875 C155.10785412 132.2130996 158.88268522 135.49452682 162.6875 138.75 C163.2870752 139.26320801 163.88665039 139.77641602 164.50439453 140.30517578 C166.33536623 141.87117047 168.16744822 143.43585476 170 145 C170.57508301 145.49113281 171.15016602 145.98226562 171.74267578 146.48828125 C173.41012764 147.91081563 175.07942667 149.33113303 176.75 150.75 C177.28028809 151.20076904 177.81057617 151.65153809 178.35693359 152.1159668 C182.56956936 155.67824674 186.88755365 159.0904822 191.26953125 162.44140625 C191.84058594 162.95574219 192.41164063 163.47007812 193 164 C193 164.66 193 165.32 193 166 C193.721875 166.226875 194.44375 166.45375 195.1875 166.6875 C198.60178807 168.28083443 200.39471214 170.27353596 203 173 C205.6207585 175.38547843 208.31868936 177.68302012 211 180 C212.15528964 181.00742076 213.31020712 182.01526838 214.46484375 183.0234375 C222.40095078 189.94259334 230.44016955 196.70348618 238.6328125 203.31835938 C240.32235279 204.68580694 242.00530941 206.06102689 243.6875 207.4375 C244.70199219 208.26121094 245.71648438 209.08492187 246.76171875 209.93359375 C247.86966797 210.95646484 247.86966797 210.95646484 249 212 C249 212.66 249 213.32 249 214 C249.721875 214.226875 250.44375 214.45375 251.1875 214.6875 C253.88978086 215.9485644 255.42122637 217.24848346 257.44140625 219.39453125 C263.48542035 225.62032021 270.28089469 231.10021562 277.015625 236.55078125 C280.99246285 239.81449503 284.88492215 243.1717567 288.77685547 246.53588867 C293.45308192 250.56620244 298.23365518 254.44031085 303.0859375 258.2578125 C303.71757813 258.83273437 304.34921875 259.40765625 305 260 C305 260.66 305 261.32 305 262 C305.7425 262.2475 306.485 262.495 307.25 262.75 C310.31953277 264.14524217 311.68722353 265.55506487 314 268 C316.62574509 270.37958149 319.32131799 272.6803582 322 275 C323.15647974 276.00885128 324.31270991 277.0179887 325.46875 278.02734375 C332.87739944 284.48555402 340.36144458 290.81457044 348 297 C350.00652229 298.65908945 352.00428526 300.32791468 354 302 C353.41037887 305.16678736 352.48432665 306.93283772 350.33984375 309.3203125 C349.79674561 309.93382568 349.25364746 310.54733887 348.6940918 311.17944336 C347.82457886 312.1424939 347.82457886 312.1424939 346.9375 313.125 C345.75372225 314.46092422 344.57143163 315.79816767 343.390625 317.13671875 C342.5234082 318.11777588 342.5234082 318.11777588 341.63867188 319.11865234 C338.28673093 322.96699217 335.13542005 326.97415854 332 331 C327.53966242 329.58080168 324.67150822 327.13383357 321.375 323.9375 C317.50427013 320.28237631 313.59139497 316.7749192 309.4375 313.4375 C304.63778016 309.57835926 300.11618074 305.47883149 295.59375 301.30078125 C292.65568167 298.69457305 289.59440872 296.38372064 286.36328125 294.15625 C285.91339844 293.7746875 285.46351563 293.393125 285 293 C285 292.34 285 291.68 285 291 C284.21302734 290.67708984 284.21302734 290.67708984 283.41015625 290.34765625 C280.0546601 288.47140637 277.30905275 285.96517061 274.4375 283.4375 C273.18189775 282.34530925 271.92537747 281.25417303 270.66796875 280.1640625 C270.04712402 279.62555664 269.4262793 279.08705078 268.78662109 278.53222656 C266.31294947 276.41077766 263.78535898 274.35959442 261.25 272.3125 C256.00131279 268.05035018 251.0015906 263.54690055 246 259 C237.29593758 251.23975158 228.3726196 243.7154935 219.3125 236.375 C214.91773359 232.80067479 210.71296517 229.06142322 206.52734375 225.24609375 C203.93037607 222.93812402 201.26595987 220.74444137 198.5625 218.5625 C193.72708501 214.65592179 189.15846168 210.51789276 184.59375 206.30078125 C181.65568167 203.69457305 178.59440872 201.38372064 175.36328125 199.15625 C174.91339844 198.7746875 174.46351563 198.393125 174 198 C174 197.34 174 196.68 174 196 C173.21302734 195.67708984 173.21302734 195.67708984 172.41015625 195.34765625 C169.0546601 193.47140637 166.30905275 190.96517061 163.4375 188.4375 C162.18189775 187.34530925 160.92537747 186.25417303 159.66796875 185.1640625 C159.04712402 184.62555664 158.4262793 184.08705078 157.78662109 183.53222656 C155.31294947 181.41077766 152.78535898 179.35959442 150.25 177.3125 C145.00131279 173.05035018 140.0015906 168.54690055 135 164 C126.3178972 156.25933003 117.42070567 148.7491219 108.375 141.4375 C103.66645362 137.60924707 99.20032239 133.56343202 94.734375 129.45703125 C91.26427697 126.3389003 87.6556853 123.41906503 84.02734375 120.48828125 C76.49402765 114.29638143 69.19682463 107.81449058 61.875 101.375 C54.48002018 94.89436692 46.95220804 88.56467847 39.3125 82.375 C34.91773359 78.80067479 30.71296517 75.06142322 26.52734375 71.24609375 C23.93037607 68.93812402 21.26595987 66.74444137 18.5625 64.5625 C14.75912497 61.48663412 11.09917348 58.31246834 7.5 55 C3.01825977 50.87577751 -1.60856778 46.99854572 -6.3515625 43.1796875 C-9.71638339 40.41041013 -12.92880475 37.4924309 -16.125 34.53125 C-19.48719702 31.78545577 -22.68829416 31.81264398 -26.875 31.75 C-28.41800781 31.71132812 -28.41800781 31.71132812 -29.9921875 31.671875 C-36.04524092 32.3322081 -40.0111688 36.56009375 -44.4375 40.4375 C-45.686112 41.5196304 -46.93481238 42.60165881 -48.18359375 43.68359375 C-48.81765137 44.23515137 -49.45170898 44.78670898 -50.10498047 45.35498047 C-53.05746535 47.91795949 -56.02915616 50.45835256 -59 53 C-60.16806067 54.00119486 -61.33602921 55.0024972 -62.50390625 56.00390625 C-64.82325601 57.99201276 -67.14364674 59.97889438 -69.46484375 61.96484375 C-70.62245376 62.95566149 -71.78000576 63.94654701 -72.9375 64.9375 C-73.51024658 65.42774658 -74.08299316 65.91799316 -74.6730957 66.4230957 C-78.38293521 69.6025882 -82.07496142 72.80183359 -85.76000977 76.01000977 C-91.47693587 80.98543715 -97.24790067 85.86459506 -103.13671875 90.63671875 C-107.89084701 94.56065817 -112.52287602 98.62449045 -117.171875 102.671875 C-120.78734287 105.81941579 -124.42080557 108.9453653 -128.0625 112.0625 C-128.63589111 112.55339111 -129.20928223 113.04428223 -129.80004883 113.55004883 C-130.95530518 114.53885203 -132.11065976 115.52754049 -133.26611328 116.51611328 C-136.17894046 119.00895524 -139.08934061 121.50462766 -142 124 C-143.16665518 125.0000134 -144.33332184 126.00001341 -145.5 127 C-146.0775 127.495 -146.655 127.99 -147.25 128.5 C-149 130 -150.75 131.5 -152.5 133 C-153.36637085 133.74262085 -153.36637085 133.74262085 -154.25024414 134.50024414 C-155.41605104 135.49948396 -156.58190386 136.49867023 -157.74780273 137.49780273 C-160.67800398 140.00899461 -163.60738291 142.52113393 -166.53515625 145.03515625 C-172.15206167 149.85663764 -177.77881552 154.66509464 -183.4375 159.4375 C-188.1356764 163.40163114 -192.79609219 167.40707067 -197.4375 171.4375 C-216.73617018 188.19314634 -216.73617018 188.19314634 -224.75 194.6875 C-229.12651627 198.23862066 -233.3083146 201.95797398 -237.47265625 205.75390625 C-240.06962393 208.06187598 -242.73404013 210.25555863 -245.4375 212.4375 C-249.24087503 215.51336588 -252.90082652 218.68753166 -256.5 222 C-260.86769492 226.01605847 -265.36849236 229.79385454 -269.984375 233.51953125 C-273.5466972 236.44967969 -277.02481682 239.46750975 -280.5 242.5 C-284.85998024 246.30457572 -289.24633269 250.0523971 -293.75 253.6875 C-297.44817537 256.67995847 -300.99806971 259.78000478 -304.5 263 C-308.87170463 267.01974536 -313.37786886 270.79988195 -317.99609375 274.53125 C-323.4630247 279.02422836 -328.76675791 283.70746063 -334.10351562 288.35351562 C-337.07855218 290.93637434 -340.06947036 293.50053398 -343.0625 296.0625 C-343.63661621 296.55411621 -344.21073242 297.04573242 -344.80224609 297.55224609 C-347.11085385 299.52854933 -349.42018917 301.50400146 -351.72949219 303.47949219 C-353.46582019 304.96511519 -355.20177942 306.45116736 -356.9375 307.9375 C-357.79021484 308.66755249 -357.79021484 308.66755249 -358.66015625 309.41235352 C-363.7743227 313.79602737 -368.86243027 318.20956584 -373.93920898 322.63647461 C-375.0953879 323.64197832 -376.25494489 324.64361603 -377.41845703 325.640625 C-378.87379267 326.8915217 -380.31087882 328.16356811 -381.74609375 329.4375 C-382.48988281 329.953125 -383.23367188 330.46875 -384 331 C-387.84791078 329.71736307 -388.93204705 327.91033525 -391.4375 324.75 C-392.19933594 323.79609375 -392.96117187 322.8421875 -393.74609375 321.859375 C-395.20351419 320.01044648 -396.65935291 318.16026958 -398.11328125 316.30859375 C-400.05015316 313.85108986 -400.05015316 313.85108986 -402.75 311.3125 C-405 309 -405 309 -405 307 C-405.99 306.67 -406.98 306.34 -408 306 C-407.88519567 302.09665285 -406.99247158 300.99279891 -404.125 298.25 C-402.75671719 297.15819495 -401.38071559 296.0760393 -400 295 C-398.14349679 293.4820198 -396.28946538 291.96101313 -394.4375 290.4375 C-391.96109881 288.41414057 -389.48469088 286.39115404 -386.99609375 284.3828125 C-384.0648669 282.05971952 -384.0648669 282.05971952 -382 279 C-381.1028125 278.566875 -381.1028125 278.566875 -380.1875 278.125 C-377.56606873 276.77683535 -376.05806519 275.11686705 -374 273 C-372.80381226 271.90327057 -371.5946058 270.82062704 -370.375 269.75 C-369.78460938 269.22921875 -369.19421875 268.7084375 -368.5859375 268.171875 C-367 267 -367 267 -365 267 C-364.77183594 266.42636719 -364.54367187 265.85273438 -364.30859375 265.26171875 C-362.64600403 262.38816817 -360.66898597 260.86552841 -358.0625 258.8125 C-357.08410156 258.03261719 -356.10570312 257.25273437 -355.09765625 256.44921875 C-353.56431641 255.23685547 -353.56431641 255.23685547 -352 254 C-349.99649159 252.37932759 -347.99633594 250.75449925 -346 249.125 C-345.113125 248.40570313 -344.22625 247.68640625 -343.3125 246.9453125 C-341.43198967 245.36339671 -339.71707448 243.75093229 -338 242 C-336.94707058 241.07235585 -335.88403136 240.15609303 -334.8125 239.25 C-332.29087298 237.10661703 -329.79285758 234.94098253 -327.3125 232.75 C-323.77525718 229.65751856 -320.21212075 226.59688999 -316.625 223.5625 C-316.10075439 223.11293945 -315.57650879 222.66337891 -315.03637695 222.20019531 C-311.22978311 219 -311.22978311 219 -309 219 C-308.77570313 218.42894531 -308.55140625 217.85789062 -308.3203125 217.26953125 C-306.61637526 214.34057404 -304.53824573 212.77581107 -301.875 210.6875 C-298.52176953 208.01798016 -295.20175568 205.34969541 -292 202.5 C-286.28456642 197.44449277 -280.35021178 192.63761134 -274.35546875 187.91796875 C-272.43286792 186.35246791 -270.72401798 184.77177471 -269 183 C-267.82462612 181.92410097 -266.63684897 180.86160655 -265.4375 179.8125 C-264.53837891 179.01779297 -264.53837891 179.01779297 -263.62109375 178.20703125 C-262 177 -262 177 -260 177 C-259.76796875 176.4225 -259.5359375 175.845 -259.296875 175.25 C-257.67640388 172.43858022 -255.80736872 170.99747143 -253.25 169 C-252.27289063 168.22140625 -251.29578125 167.4428125 -250.2890625 166.640625 C-249.76086914 166.21974609 -249.23267578 165.79886719 -248.68847656 165.36523438 C-245.61921679 162.88355412 -242.62274357 160.31722502 -239.625 157.75 C-239.04266602 157.255 -238.46033203 156.76 -237.86035156 156.25 C-235.2075204 153.97745379 -232.68476769 151.68388344 -230.21484375 149.20703125 C-228.13012883 147.12966982 -226.59360867 146.25497194 -224 145 C-222.64264858 143.69112542 -221.31494512 142.35147138 -220 141 C-217.36729023 138.62717145 -214.68504376 136.31326847 -212 134 C-211.4121875 133.484375 -210.824375 132.96875 -210.21875 132.4375 C-206.234375 129 -206.234375 129 -204 129 C-203.67 128.01 -203.34 127.02 -203 126 C-201.30618696 124.45681128 -199.54557498 122.98599728 -197.75 121.5625 C-196.79609375 120.80066406 -195.8421875 120.03882813 -194.859375 119.25390625 C-193.91578125 118.51011719 -192.9721875 117.76632813 -192 117 C-188.4562272 114.21366323 -188.4562272 114.21366323 -185.1875 111.125 C-183.2230288 109.21665655 -181.26662149 107.67637922 -179.0625 106.0625 C-176.65977651 104.29696285 -174.6191895 102.6191895 -172.5 100.5 C-169.7971979 97.7971979 -166.91424914 95.65414648 -163.83984375 93.3984375 C-161.68929461 91.76383752 -159.87975531 89.93849766 -158 88 C-155.36977111 85.62520016 -152.67958363 83.31879249 -150 81 C-148.87876843 80.02620033 -147.75768626 79.05222862 -146.63671875 78.078125 C-140.25264872 72.53384208 -133.85538021 67.00511887 -127.4375 61.5 C-126.59904541 60.78034058 -126.59904541 60.78034058 -125.74365234 60.04614258 C-121.24331064 56.19112523 -116.69354623 52.39901645 -112.125 48.625 C-106.692414 44.09315365 -101.42024788 39.38505908 -96.1875 34.625 C-91.76812478 30.62846624 -87.20050973 26.8556503 -82.54296875 23.140625 C-79.91071374 20.98734888 -79.91071374 20.98734888 -77.3359375 18.33203125 C-75.0212426 16.02120708 -72.79978786 14.65115694 -70 13 C-69.401875 12.401875 -68.80375 11.80375 -68.1875 11.1875 C-65.67516868 8.67516868 -62.96047595 6.65696849 -60.09765625 4.5625 C-58.57137621 3.42560612 -57.09343237 2.22294203 -55.6484375 0.984375 C-40.24910744 -10.55376611 -16.18318657 -8.60451446 0 0 Z " fill="#FFFFFF" transform="translate(479,64)"/>
</svg>
